<?xml version="1.0" standalone="no"?>
<!DOCTYPE svg PUBLIC "-//W3C//DTD SVG 20010904//EN"
 "http://www.w3.org/TR/2001/REC-SVG-20010904/DTD/svg10.dtd">
<svg version="1.0" xmlns="http://www.w3.org/2000/svg"
 width="1278.000000pt" height="1884.000000pt" viewBox="0 0 1278.000000 1884.000000"
 preserveAspectRatio="xMidYMid meet">

<g transform="translate(0.000000,1884.000000) scale(0.100000,-0.100000)"
fill="#000000" stroke="none">
<path d="M6755 17034 c-8 -20 -15 -41 -15 -47 0 -18 -32 -121 -45 -147 -13
-24 -22 -48 -60 -155 -8 -22 -21 -65 -29 -95 -8 -30 -24 -80 -35 -110 -12 -30
-21 -63 -21 -73 0 -10 -6 -28 -13 -40 -8 -12 -22 -51 -32 -87 -10 -36 -28 -92
-41 -125 -23 -60 -64 -202 -89 -305 -7 -30 -21 -80 -30 -110 -9 -30 -20 -73
-24 -95 -4 -22 -12 -49 -18 -59 -6 -10 -8 -27 -6 -37 3 -10 -2 -40 -11 -66
-32 -94 -51 -168 -48 -188 1 -10 -4 -40 -12 -65 -23 -74 -86 -372 -108 -515
-5 -33 -16 -98 -24 -145 -30 -168 -47 -455 -47 -820 0 -195 2 -375 6 -400 3
-25 9 -83 13 -130 4 -47 10 -92 15 -101 4 -9 16 -70 25 -135 9 -65 23 -132 31
-147 8 -16 19 -56 24 -90 10 -59 87 -309 115 -372 7 -16 27 -64 43 -105 16
-41 45 -110 65 -153 20 -42 38 -89 40 -103 3 -15 12 -34 20 -43 16 -17 37 -55
112 -198 27 -51 51 -88 52 -83 2 6 0 16 -6 23 -16 20 -35 116 -28 147 4 22 1
30 -13 35 -13 4 -21 23 -29 73 -6 37 -19 101 -28 142 -9 41 -16 84 -15 95 0
11 -3 29 -8 40 -22 49 -30 90 -25 126 5 32 4 39 -10 39 -8 0 -18 10 -20 23
-19 89 -26 133 -26 164 0 20 -6 44 -13 52 -8 9 -21 52 -30 96 -8 44 -20 103
-26 130 -5 28 -22 96 -37 151 -30 114 -33 102 46 183 l44 45 8 -35 c5 -19 10
-74 12 -124 2 -49 9 -103 16 -120 21 -51 40 -176 30 -195 -6 -12 -4 -24 7 -39
11 -16 13 -34 9 -61 -4 -28 -2 -41 8 -47 18 -11 30 -54 61 -211 14 -74 30
-142 35 -152 16 -31 12 -88 -7 -99 -16 -10 -15 -13 13 -39 25 -23 33 -43 49
-118 21 -101 31 -134 42 -134 5 0 19 55 31 123 13 67 31 149 39 182 13 51 30
126 47 210 2 11 7 45 10 75 4 30 13 80 21 110 23 94 46 223 47 270 2 38 9 54
45 97 l44 51 -36 13 c-32 12 -35 16 -29 39 4 14 6 41 5 61 -1 27 7 47 34 82
38 49 59 58 69 30 5 -12 -1 -23 -18 -36 -15 -10 -26 -25 -26 -32 0 -7 15 -40
34 -74 19 -33 34 -73 34 -88 -1 -16 6 -42 15 -59 19 -37 47 -153 47 -195 0
-17 4 -39 10 -49 8 -15 6 -20 -9 -25 -15 -5 -17 -11 -11 -38 4 -18 17 -49 29
-69 13 -21 24 -59 26 -89 2 -29 8 -55 14 -58 5 -4 17 -40 26 -81 8 -41 22
-104 30 -140 7 -36 11 -77 8 -92 -4 -20 -1 -30 10 -34 9 -3 19 -24 22 -47 10
-61 22 -78 30 -45 4 15 4 32 0 38 -4 6 -2 17 4 24 6 7 15 39 20 72 12 81 48
262 71 359 27 113 60 307 54 317 -7 11 16 148 24 148 4 0 8 46 9 102 2 56 8
116 13 134 10 30 73 92 87 86 9 -3 5 -68 -8 -136 -15 -79 -27 -146 -35 -201
-4 -27 -12 -53 -18 -57 -6 -4 -11 -27 -12 -50 0 -24 -11 -88 -23 -143 -13 -55
-25 -116 -28 -135 -2 -19 -8 -44 -13 -55 -5 -11 -16 -72 -25 -135 -10 -63 -22
-126 -27 -140 -6 -14 -11 -54 -12 -90 -1 -36 -8 -92 -14 -125 -28 -139 -33
-185 -33 -280 1 -100 1 -100 -29 -123 -22 -18 -31 -20 -34 -10 -31 92 -56 184
-56 206 0 15 -6 45 -14 67 -8 22 -17 74 -20 115 -4 41 -11 84 -16 95 -5 11
-16 63 -25 115 -10 52 -24 119 -32 149 -8 30 -13 71 -10 92 3 25 1 38 -6 36
-14 -3 -39 100 -33 141 6 40 -1 62 -19 62 -9 0 -23 41 -41 120 -15 66 -31 117
-34 113 -4 -5 -12 -44 -19 -88 -7 -44 -23 -125 -36 -180 -13 -55 -26 -120 -29
-145 -14 -106 -55 -319 -65 -339 -7 -12 -13 -47 -15 -79 -2 -31 -11 -95 -19
-142 -31 -166 -35 -215 -25 -256 9 -34 8 -45 -11 -83 l-23 -44 29 -26 c15 -15
36 -40 45 -57 43 -77 226 -323 299 -404 17 -19 45 -55 62 -79 l31 -44 21 27
c12 15 27 43 34 64 8 20 36 86 62 146 53 118 55 127 37 123 -19 -3 -21 37 -4
78 14 32 19 36 41 31 20 -5 25 -3 25 12 0 10 17 54 39 98 21 43 55 122 76 174
20 52 47 122 60 155 13 33 29 75 35 92 7 18 17 30 23 26 5 -3 7 -2 4 4 -6 10
39 173 50 182 5 3 9 24 11 45 2 22 9 51 17 65 7 15 11 39 8 54 -4 22 1 35 22
57 16 16 31 28 34 25 4 -2 16 10 26 26 20 28 43 44 53 35 6 -6 32 -153 39
-222 3 -35 1 -54 -7 -59 -8 -5 -3 -16 18 -35 23 -20 32 -40 37 -76 4 -27 13
-60 21 -74 7 -14 23 -61 34 -105 12 -44 31 -106 41 -138 11 -31 17 -62 14 -67
-4 -6 -1 -17 5 -25 7 -8 10 -15 7 -15 -3 0 7 -25 23 -55 16 -31 32 -72 36 -93
3 -20 30 -109 60 -197 30 -88 54 -168 54 -178 0 -10 10 -31 22 -48 18 -24 20
-33 11 -48 -10 -15 -8 -22 8 -37 11 -10 25 -37 31 -61 6 -24 15 -46 21 -50 5
-3 57 -5 115 -5 60 1 111 -3 118 -9 8 -6 14 -7 18 0 7 11 75 3 92 -10 6 -5 15
-4 22 3 15 15 173 -9 189 -30 9 -11 16 -12 26 -4 15 13 55 5 78 -14 9 -8 18
-11 22 -8 3 3 18 -3 34 -14 15 -10 45 -25 66 -31 47 -16 167 -130 167 -160 0
-11 6 -21 13 -21 18 0 52 -58 65 -110 22 -92 34 -281 23 -370 -6 -47 -15 -86
-20 -88 -4 -1 -6 -13 -4 -27 7 -35 -16 -98 -33 -91 -11 4 -14 -5 -12 -40 1
-36 -8 -63 -48 -140 -43 -85 -52 -95 -72 -91 -20 4 -23 1 -18 -17 7 -27 -47
-86 -74 -79 -15 4 -18 1 -14 -15 4 -14 -8 -31 -48 -66 -29 -25 -59 -44 -65
-41 -7 2 -13 0 -13 -5 0 -11 -192 -140 -209 -140 -7 0 -28 -8 -49 -19 -20 -10
-73 -27 -117 -36 -44 -10 -81 -19 -83 -20 -3 -3 39 -117 62 -168 8 -17 17 -45
19 -62 16 -97 29 -158 36 -173 17 -32 40 -127 47 -187 4 -33 10 -65 15 -71 5
-5 11 -55 15 -110 4 -54 11 -107 16 -117 12 -23 12 -592 0 -615 -5 -9 -10 -53
-11 -96 -1 -44 -9 -98 -17 -120 -7 -23 -14 -62 -14 -89 0 -50 -33 -184 -56
-229 -8 -14 -14 -43 -14 -63 0 -20 -4 -44 -9 -53 -4 -9 -11 -36 -15 -58 -5
-36 -3 -42 14 -47 24 -6 27 -45 5 -54 -9 -3 -21 2 -29 12 -11 16 -14 15 -29
-9 -9 -14 -17 -36 -17 -50 0 -14 -4 -28 -10 -31 -5 -3 -10 -17 -10 -31 0 -18
5 -24 21 -24 31 0 18 -24 -16 -30 -30 -5 -33 -11 -83 -120 -11 -25 -32 -70
-46 -101 -14 -31 -26 -59 -26 -63 0 -4 -11 -22 -24 -39 -13 -18 -46 -77 -72
-132 -27 -55 -64 -117 -83 -138 -19 -20 -43 -52 -54 -70 -10 -17 -30 -44 -43
-58 -13 -14 -37 -44 -52 -66 -37 -56 -128 -166 -193 -235 -30 -31 -72 -77 -94
-102 -21 -25 -43 -46 -48 -46 -5 0 -37 -28 -72 -62 -94 -92 -124 -119 -180
-157 -27 -19 -58 -45 -68 -57 -10 -13 -28 -26 -40 -30 -12 -4 -39 -22 -60 -40
-20 -19 -43 -34 -50 -34 -7 0 -26 -13 -41 -29 -15 -16 -40 -31 -55 -34 -16 -3
-42 -17 -59 -31 -16 -15 -37 -26 -45 -26 -9 0 -28 -11 -44 -24 -15 -13 -50
-33 -78 -45 -27 -12 -56 -28 -65 -35 -8 -7 -36 -21 -62 -31 -26 -10 -53 -24
-59 -31 -6 -7 -27 -16 -47 -20 -19 -4 -60 -20 -90 -35 -30 -16 -65 -29 -78
-29 -13 0 -49 -12 -79 -26 -31 -14 -90 -34 -132 -45 -42 -10 -81 -23 -87 -28
-11 -8 -66 -20 -212 -45 -38 -7 -75 -16 -82 -20 -19 -11 -171 -26 -406 -38
-312 -16 -555 0 -806 52 -30 6 -91 18 -135 26 -44 8 -98 21 -120 28 -22 8 -60
19 -85 26 -94 25 -156 45 -175 57 -11 7 -29 13 -41 13 -25 0 -92 26 -114 44
-12 10 -146 68 -237 103 -26 10 -12 -24 25 -63 50 -51 169 -156 190 -168 9 -5
47 -35 84 -65 158 -132 237 -189 333 -241 22 -12 54 -33 72 -46 17 -13 35 -24
40 -24 4 -1 40 -21 78 -45 39 -25 90 -55 115 -66 72 -34 74 -35 95 -47 59 -33
218 -102 234 -102 11 0 23 -4 26 -10 9 -15 95 -50 122 -50 13 0 26 -7 29 -15
4 -8 17 -15 31 -15 32 0 130 -27 163 -44 38 -20 129 -45 195 -52 33 -4 72 -13
86 -20 14 -7 50 -16 80 -19 30 -4 65 -10 79 -15 14 -5 56 -11 94 -14 37 -3 73
-9 80 -14 6 -5 58 -12 116 -16 58 -3 131 -10 161 -15 76 -13 846 -13 989 -1
63 5 156 13 205 16 50 4 98 11 107 16 10 4 48 13 85 18 156 23 197 31 209 41
7 6 46 15 86 20 40 6 105 21 143 34 39 12 85 26 104 30 19 4 64 20 99 37 36
16 77 30 91 32 44 6 115 29 141 47 14 9 36 20 50 24 14 4 50 21 81 36 31 16
62 29 68 29 7 0 27 11 45 25 18 14 41 25 50 25 10 0 41 16 70 35 29 19 56 35
60 35 4 0 22 11 39 24 18 13 52 34 77 46 53 25 108 58 141 83 20 15 59 41 138
92 55 35 120 88 125 100 3 8 18 21 33 27 15 7 38 22 51 33 12 11 41 37 65 58
23 20 70 64 104 97 34 33 66 60 71 60 5 0 30 24 56 53 26 28 85 93 132 143 47
51 97 108 112 129 15 20 49 62 75 93 27 31 58 74 68 94 11 21 23 38 28 38 5 0
20 17 32 38 13 20 32 43 42 51 11 8 30 37 43 65 13 28 42 78 64 111 22 33 44
70 49 82 5 11 15 24 21 28 6 4 21 28 34 53 13 26 33 65 44 87 67 131 154 317
166 355 8 25 29 83 47 130 42 112 99 276 109 320 5 19 13 53 19 75 5 22 16 66
25 98 9 32 25 106 36 165 12 59 25 123 30 142 5 19 17 105 27 190 15 125 18
237 18 575 0 420 -2 453 -40 655 -8 41 -19 113 -26 160 -6 47 -17 101 -25 120
-7 19 -24 86 -39 148 -15 62 -35 134 -45 160 -9 26 -25 70 -33 97 -47 147
-100 292 -136 369 -23 47 -41 95 -41 106 0 10 -11 36 -25 56 -14 21 -28 49
-32 63 -3 14 -11 33 -18 41 -7 8 -25 44 -39 80 -15 36 -37 81 -50 100 -13 19
-27 46 -31 60 -9 30 -60 127 -77 148 -13 15 -52 87 -89 162 -12 25 -29 56 -39
70 -9 14 -43 75 -74 135 -32 61 -67 119 -77 131 -10 11 -19 25 -19 30 0 6 -12
26 -26 45 -14 19 -39 59 -55 89 -37 71 -67 119 -100 161 -15 19 -39 59 -55 89
-15 30 -44 76 -64 101 -19 26 -57 84 -85 129 -27 45 -62 96 -76 114 -14 17
-34 47 -44 66 -10 19 -29 46 -42 60 -14 13 -31 38 -39 55 -19 41 -52 96 -73
120 -9 11 -33 45 -52 75 -41 63 -41 63 -154 232 -46 69 -89 129 -95 133 -6 3
-20 25 -32 48 -11 23 -29 53 -40 67 -61 79 -118 162 -118 171 0 18 -38 84 -60
104 -12 11 -29 33 -37 50 -9 16 -32 50 -52 75 -37 46 -46 61 -83 131 -11 21
-23 39 -27 39 -7 0 -75 101 -105 155 -9 17 -24 41 -35 55 -10 14 -38 58 -62
99 -47 79 -51 85 -118 182 -24 35 -58 91 -74 124 -16 33 -36 67 -44 75 -21 22
-96 143 -147 240 -25 47 -71 123 -101 169 -30 46 -55 89 -55 97 0 7 -4 15 -9
18 -5 3 -32 52 -61 108 -28 57 -58 108 -66 114 -8 6 -14 19 -14 28 0 9 -12 35
-27 59 -15 23 -48 83 -73 132 -26 50 -60 115 -75 145 -16 30 -31 57 -34 60
-13 12 -41 73 -41 90 0 9 -6 23 -14 29 -7 6 -26 37 -40 69 -15 31 -37 77 -50
102 -54 107 -86 182 -86 201 0 11 -7 22 -15 25 -8 4 -15 13 -15 21 0 8 -6 27
-14 41 -8 15 -31 68 -52 117 -20 50 -50 118 -66 153 -15 34 -28 69 -28 77 0 8
-9 24 -20 35 -11 11 -20 28 -20 38 0 22 -27 102 -57 169 -13 28 -23 59 -23 68
0 9 -9 33 -20 55 -11 22 -20 47 -20 58 0 10 -5 23 -11 29 -6 6 -15 29 -19 50
-8 40 -24 86 -46 141 -8 18 -14 41 -14 52 0 10 -9 34 -19 52 -10 18 -24 58
-31 88 -7 30 -19 67 -26 82 -13 23 -35 110 -64 253 -10 47 -27 95 -35 95 -2 0
-12 -16 -20 -36z m-25 -1289 c0 -8 -4 -15 -10 -15 -5 0 -10 7 -10 15 0 8 5 15
10 15 6 0 10 -7 10 -15z m-30 -315 c0 -5 -4 -10 -10 -10 -5 0 -10 5 -10 10 0
6 5 10 10 10 6 0 10 -4 10 -10z m-5 -150 c3 -5 1 -10 -4 -10 -6 0 -11 5 -11
10 0 6 2 10 4 10 3 0 8 -4 11 -10z m5 -24 c0 -3 -4 -8 -10 -11 -5 -3 -10 -1
-10 4 0 6 5 11 10 11 6 0 10 -2 10 -4z m30 -260 c0 -3 -4 -8 -10 -11 -5 -3
-10 -1 -10 4 0 6 5 11 10 11 6 0 10 -2 10 -4z m530 -26 c0 -5 -4 -10 -10 -10
-5 0 -10 5 -10 10 0 6 5 10 10 10 6 0 10 -4 10 -10z m-150 -410 c0 -5 -4 -10
-10 -10 -5 0 -10 5 -10 10 0 6 5 10 10 10 6 0 10 -4 10 -10z m400 -84 c0 -3
-4 -8 -10 -11 -5 -3 -10 -1 -10 4 0 6 5 11 10 11 6 0 10 -2 10 -4z m-530 -76
c0 -5 -2 -10 -4 -10 -3 0 -8 5 -11 10 -3 6 -1 10 4 10 6 0 11 -4 11 -10z m530
-90 c0 -5 -4 -10 -10 -10 -5 0 -10 5 -10 10 0 6 5 10 10 10 6 0 10 -4 10 -10z
m-135 -120 c3 -5 1 -10 -4 -10 -6 0 -11 5 -11 10 0 6 2 10 4 10 3 0 8 -4 11
-10z m-25 -160 c0 -5 -4 -10 -10 -10 -5 0 -10 5 -10 10 0 6 5 10 10 10 6 0 10
-4 10 -10z m-50 -30 c0 -5 -4 -10 -10 -10 -5 0 -10 5 -10 10 0 6 5 10 10 10 6
0 10 -4 10 -10z m425 -100 c-3 -5 -10 -10 -16 -10 -5 0 -9 5 -9 10 0 6 7 10
16 10 8 0 12 -4 9 -10z m-285 -280 c0 -5 -2 -10 -4 -10 -3 0 -8 5 -11 10 -3 6
-1 10 4 10 6 0 11 -4 11 -10z m105 0 c-3 -5 -10 -10 -16 -10 -5 0 -9 5 -9 10
0 6 7 10 16 10 8 0 12 -4 9 -10z m155 -21 c0 -5 -4 -9 -10 -9 -5 0 -10 7 -10
16 0 8 5 12 10 9 6 -3 10 -10 10 -16z m-30 -55 c0 -8 -4 -14 -9 -14 -11 0 -22
26 -14 34 9 9 23 -3 23 -20z m90 0 c0 -8 -4 -14 -10 -14 -5 0 -10 9 -10 21 0
11 5 17 10 14 6 -3 10 -13 10 -21z m115 16 c3 -6 -1 -7 -9 -4 -18 7 -21 14 -7
14 6 0 13 -4 16 -10z m100 -9 c3 -5 1 -12 -5 -16 -5 -3 -10 1 -10 9 0 18 6 21
15 7z m-465 -40 c0 -6 -4 -13 -10 -16 -5 -3 -10 1 -10 9 0 9 5 16 10 16 6 0
10 -4 10 -9z m590 -42 c0 -5 -4 -9 -10 -9 -5 0 -10 7 -10 16 0 8 5 12 10 9 6
-3 10 -10 10 -16z m-490 1 c0 -5 -4 -10 -10 -10 -5 0 -10 5 -10 10 0 6 5 10
10 10 6 0 10 -4 10 -10z m265 0 c3 -5 -1 -10 -9 -10 -8 0 -18 5 -21 10 -3 6 1
10 9 10 8 0 18 -4 21 -10z m-158 -36 c-3 -3 -12 -4 -19 -1 -8 3 -5 6 6 6 11 1
17 -2 13 -5z m133 -20 c0 -8 -5 -12 -10 -9 -6 4 -8 11 -5 16 9 14 15 11 15 -7z
m-55 -34 c3 -5 -1 -10 -10 -10 -9 0 -13 5 -10 10 3 6 8 10 10 10 2 0 7 -4 10
-10z m365 -10 c0 -5 -5 -10 -11 -10 -5 0 -7 5 -4 10 3 6 8 10 11 10 2 0 4 -4
4 -10z m-620 -15 c0 -8 -4 -15 -10 -15 -5 0 -10 7 -10 15 0 8 5 15 10 15 6 0
10 -7 10 -15z m367 -7 c-3 -8 -6 -5 -6 6 -1 11 2 17 5 13 3 -3 4 -12 1 -19z
m293 -38 c0 -5 -4 -10 -10 -10 -5 0 -10 5 -10 10 0 6 5 10 10 10 6 0 10 -4 10
-10z m-160 -16 c0 -8 -4 -12 -10 -9 -5 3 -10 10 -10 16 0 5 5 9 10 9 6 0 10
-7 10 -16z m-475 -14 c3 -5 1 -10 -4 -10 -6 0 -11 5 -11 10 0 6 2 10 4 10 3 0
8 -4 11 -10z m342 -62 c-3 -7 -5 -2 -5 12 0 14 2 19 5 13 2 -7 2 -19 0 -25z
m-177 -22 c0 -3 -4 -8 -10 -11 -5 -3 -10 -1 -10 4 0 6 5 11 10 11 6 0 10 -2
10 -4z m470 -86 c0 -5 -5 -10 -11 -10 -5 0 -7 5 -4 10 3 6 8 10 11 10 2 0 4
-4 4 -10z m-384 -37 c-10 -10 -19 5 -10 18 6 11 8 11 12 0 2 -7 1 -15 -2 -18z
m104 12 c0 -8 -4 -15 -10 -15 -5 0 -10 7 -10 15 0 8 5 15 10 15 6 0 10 -7 10
-15z m85 6 c3 -5 1 -12 -5 -16 -5 -3 -10 1 -10 9 0 18 6 21 15 7z m339 -60 c3
-5 -1 -12 -10 -15 -20 -8 -29 -1 -19 13 8 13 22 14 29 2z m66 -64 c0 -16 -35
-1 -38 16 -3 16 -1 17 17 5 12 -7 21 -17 21 -21z m-530 3 c0 -5 -9 -10 -20
-10 -11 0 -20 5 -20 10 0 6 9 10 20 10 11 0 20 -4 20 -10z m80 -30 c0 -5 -4
-10 -10 -10 -5 0 -10 5 -10 10 0 6 5 10 10 10 6 0 10 -4 10 -10z m390 -8 c0
-4 -9 -8 -20 -8 -11 0 -20 4 -20 8 0 4 9 8 20 8 11 0 20 -4 20 -8z m-88 -82
c-2 -16 -8 -30 -13 -30 -10 0 -12 21 -3 44 10 27 21 18 16 -14z m58 20 c0 -5
-4 -10 -10 -10 -5 0 -10 5 -10 10 0 6 5 10 10 10 6 0 10 -4 10 -10z m-350 -30
c0 -5 -4 -10 -10 -10 -5 0 -10 5 -10 10 0 6 5 10 10 10 6 0 10 -4 10 -10z
m386 -37 c-11 -11 -19 6 -11 24 8 17 8 17 12 0 3 -10 2 -21 -1 -24z m-226 -25
c0 -4 -9 -8 -20 -8 -20 0 -28 29 -13 44 7 7 33 -21 33 -36z m90 32 c0 -5 -9
-10 -20 -10 -11 0 -20 5 -20 10 0 6 9 10 20 10 11 0 20 -4 20 -10z m100 -41
c0 -11 -4 -17 -10 -14 -5 3 -10 13 -10 21 0 8 5 14 10 14 6 0 10 -9 10 -21z
m-150 -40 c0 -6 -4 -7 -10 -4 -5 3 -10 11 -10 16 0 6 5 7 10 4 6 -3 10 -11 10
-16z m-100 -3 c0 -8 -4 -18 -10 -21 -5 -3 -10 3 -10 14 0 12 5 21 10 21 6 0
10 -6 10 -14z m308 -37 c-3 -8 -7 -3 -11 10 -4 17 -3 21 5 13 5 -5 8 -16 6
-23z m-98 -15 c0 -8 -5 -12 -10 -9 -6 4 -8 11 -5 16 9 14 15 11 15 -7z m-120
-24 c0 -5 -4 -10 -10 -10 -5 0 -10 5 -10 10 0 6 5 10 10 10 6 0 10 -4 10 -10z
m380 -10 c0 -5 -4 -10 -10 -10 -5 0 -10 5 -10 10 0 6 5 10 10 10 6 0 10 -4 10
-10z m-473 -32 c-3 -8 -6 -5 -6 6 -1 11 2 17 5 13 3 -3 4 -12 1 -19z m243 -18
c0 -5 -4 -10 -10 -10 -5 0 -10 5 -10 10 0 6 5 10 10 10 6 0 10 -4 10 -10z
m190 0 c0 -5 -4 -10 -10 -10 -5 0 -10 5 -10 10 0 6 5 10 10 10 6 0 10 -4 10
-10z m168 -8 c2 -7 -2 -10 -12 -6 -9 3 -16 11 -16 16 0 13 23 5 28 -10z m37
-42 c21 -40 20 -53 -4 -41 -10 6 -21 8 -24 4 -3 -3 -14 -2 -24 2 -16 6 -16 8
5 16 13 5 22 17 22 29 0 28 7 25 25 -10z m-155 -30 c0 -5 -9 -10 -21 -10 -11
0 -17 5 -14 10 3 6 13 10 21 10 8 0 14 -4 14 -10z m-180 -40 c0 -5 -5 -10 -11
-10 -5 0 -7 5 -4 10 3 6 8 10 11 10 2 0 4 -4 4 -10z m380 -15 c0 -8 -7 -15
-15 -15 -8 0 -15 7 -15 15 0 8 7 15 15 15 8 0 15 -7 15 -15z m-50 -40 c0 -3
-9 -5 -20 -5 -11 0 -20 7 -20 15 0 13 4 14 20 5 11 -6 20 -13 20 -15z m-380
-20 c0 -8 -4 -15 -10 -15 -5 0 -10 7 -10 15 0 8 5 15 10 15 6 0 10 -7 10 -15z
m-40 -50 c0 -8 -4 -15 -10 -15 -5 0 -10 7 -10 15 0 8 5 15 10 15 6 0 10 -7 10
-15z m-94 -42 c-11 -11 -17 4 -9 23 7 18 8 18 11 1 2 -10 1 -21 -2 -24z m55
-16 c-16 -16 -26 0 -10 19 9 11 15 12 17 4 2 -6 -1 -17 -7 -23z m19 -57 c0 -5
-5 -10 -11 -10 -5 0 -7 5 -4 10 3 6 8 10 11 10 2 0 4 -4 4 -10z m350 -25 c0
-8 -4 -15 -10 -15 -5 0 -10 7 -10 15 0 8 5 15 10 15 6 0 10 -7 10 -15z m-182
-6 c-2 -6 -8 -10 -13 -10 -5 0 -11 4 -13 10 -2 6 4 11 13 11 9 0 15 -5 13 -11z
m772 -553 c0 -5 -3 -6 -7 -3 -3 4 -13 1 -21 -6 -9 -6 -13 -7 -10 -2 2 6 8 19
12 30 6 16 9 17 16 5 6 -8 10 -19 10 -24z m180 -132 c0 -8 -4 -12 -10 -9 -5 3
-10 10 -10 16 0 5 5 9 10 9 6 0 10 -7 10 -16z m-510 -79 c0 -8 -4 -15 -8 -15
-5 0 -9 7 -9 15 0 8 4 15 9 15 4 0 8 -7 8 -15z m580 -6 c0 -11 -4 -17 -10 -14
-5 3 -10 13 -10 21 0 8 5 14 10 14 6 0 10 -9 10 -21z m-430 -119 c0 -24 -13
-26 -34 -4 -21 21 -20 24 9 24 18 0 25 -5 25 -20z m728 -383 c2 -10 -3 -17
-12 -17 -10 0 -16 9 -16 21 0 24 23 21 28 -4z m262 -557 c0 -5 -2 -10 -4 -10
-3 0 -8 5 -11 10 -3 6 -1 10 4 10 6 0 11 -4 11 -10z m-417 -187 c-7 -2 -19 -2
-25 0 -7 3 -2 5 12 5 14 0 19 -2 13 -5z m-88 -185 c27 -121 39 -246 26 -262
-10 -12 -8 -18 13 -31 26 -18 46 -62 46 -104 0 -15 6 -35 13 -46 8 -11 24 -58
36 -105 13 -47 32 -111 43 -142 11 -31 17 -62 13 -68 -4 -6 -1 -17 5 -25 7 -8
10 -15 6 -15 -3 0 7 -24 23 -52 17 -29 33 -73 37 -98 4 -25 31 -114 61 -198
29 -84 53 -162 53 -173 0 -11 10 -33 22 -50 18 -24 20 -33 11 -48 -9 -14 -8
-22 7 -37 25 -26 69 -163 63 -196 -4 -21 -15 -30 -51 -42 -25 -9 -49 -13 -53
-9 -14 16 -59 231 -62 290 -1 42 -6 63 -14 63 -19 0 -29 27 -48 122 -18 90
-38 125 -56 97 -5 -8 -9 -24 -9 -36 0 -13 -2 -23 -5 -23 -2 0 -26 13 -53 29
l-49 29 -171 -2 c-112 -1 -173 2 -175 8 -2 7 -13 7 -31 -2 -15 -6 -46 -12 -69
-12 -50 0 -87 -9 -87 -21 0 -4 -16 -41 -35 -82 -19 -41 -35 -78 -35 -83 0 -23
-61 -169 -78 -188 -14 -15 -18 -31 -15 -56 4 -27 0 -40 -16 -54 -12 -11 -21
-24 -21 -31 0 -6 -11 -18 -25 -25 -20 -11 -28 -10 -50 4 -30 19 -31 30 -7 56
18 19 22 27 90 170 44 93 132 296 132 304 0 3 -6 5 -12 3 -19 -3 -21 37 -4 78
13 31 20 37 40 33 20 -4 25 0 30 22 3 15 19 56 36 91 17 35 40 87 52 114 51
127 82 205 103 265 13 36 28 64 35 62 6 -1 9 1 6 6 -6 10 40 173 51 181 5 3 9
24 11 45 2 22 8 49 14 60 6 11 10 37 10 57 -1 28 5 42 28 64 17 16 30 25 30
19 0 -5 12 8 27 29 30 42 50 47 58 15z m387 -182 c21 -31 -5 -136 -29 -113 -8
9 -10 14 -12 47 0 11 -8 20 -16 20 -21 0 -35 31 -24 52 7 13 17 16 42 11 17
-3 35 -11 39 -17z m-82 -86 c0 -5 -2 -10 -4 -10 -3 0 -8 5 -11 10 -3 6 -1 10
4 10 6 0 11 -4 11 -10z m395 -349 c7 -12 -12 -24 -25 -16 -11 7 -4 25 10 25 5
0 11 -4 15 -9z m-177 -183 c15 -15 15 -30 -1 -52 -7 -10 -19 -15 -29 -11 -13
5 -14 13 -8 35 4 16 6 31 2 34 -3 3 1 6 9 6 8 0 20 -5 27 -12z m93 -161 c-10
-9 -11 -8 -5 6 3 10 9 15 12 12 3 -3 0 -11 -7 -18z m11 -92 c13 -17 9 -32 -9
-39 -10 -3 -25 -11 -34 -17 -9 -7 -24 -9 -33 -6 -15 6 -15 9 1 42 14 29 22 35
43 33 14 -2 28 -7 32 -13z m18 -104 c7 -13 7 -22 0 -26 -5 -3 -10 -19 -10 -35
0 -27 -3 -29 -31 -25 -62 8 -78 45 -29 70 17 9 30 20 30 25 0 18 29 11 40 -9z
m110 -62 c14 -24 -2 -49 -31 -49 -25 0 -44 37 -28 56 17 20 47 17 59 -7z m-96
-75 c33 -13 4 -64 -35 -64 -15 0 -19 7 -19 35 0 36 15 44 54 29z m173 0 c-3
-3 -12 -4 -19 -1 -8 3 -5 6 6 6 11 1 17 -2 13 -5z m-73 -61 c-20 -15 -34 -17
-34 -5 0 16 23 30 38 25 13 -5 12 -8 -4 -20z m144 0 c-2 -20 -9 -29 -26 -31
-30 -4 -41 24 -16 43 30 23 46 18 42 -12z m-120 -72 c2 -13 10 -31 18 -38 8
-8 12 -19 9 -24 -9 -14 -25 -11 -25 6 0 9 -11 20 -24 24 -28 11 -39 34 -23 50
18 18 42 8 45 -18z m-113 -22 c0 -8 -10 -15 -22 -17 -25 -4 -33 22 -10 31 18
8 32 2 32 -14z m383 -8 c18 -11 11 -45 -10 -49 -17 -3 -34 30 -23 48 7 12 16
12 33 1z m-296 -76 c0 -5 -5 -11 -11 -13 -6 -2 -11 4 -11 13 0 9 5 15 11 13 6
-2 11 -8 11 -13z m123 -25 c11 -18 -6 -50 -25 -50 -21 0 -40 28 -33 48 6 14
49 16 58 2z m-185 -62 c0 -22 -32 -24 -49 -4 -10 11 -10 20 -1 36 11 21 12 21
31 4 10 -9 19 -25 19 -36z m-973 -119 c8 -7 19 -7 34 1 21 12 43 11 174 -5 58
-7 69 -11 150 -51 79 -38 89 -68 51 -167 -28 -73 -70 -137 -92 -137 -8 0 -14
-8 -14 -18 0 -16 -68 -68 -115 -87 -17 -6 -14 -9 20 -17 22 -4 64 -18 93 -30
43 -18 52 -26 52 -47 1 -24 2 -25 14 -8 7 9 19 17 26 17 20 0 70 -33 70 -47 0
-7 12 -15 28 -19 47 -10 71 -26 118 -78 25 -28 58 -64 74 -81 16 -16 45 -55
65 -85 27 -42 34 -61 29 -82 -3 -16 -1 -28 4 -28 25 0 59 -159 50 -230 -4 -30
-8 -72 -8 -92 1 -40 -27 -104 -67 -153 -13 -16 -34 -43 -46 -58 -13 -17 -37
-32 -57 -36 -29 -6 -35 -11 -33 -32 2 -21 -8 -29 -85 -67 -48 -23 -93 -42 -99
-42 -7 0 -13 -4 -13 -10 0 -5 -7 -10 -15 -10 -8 0 -23 -4 -33 -9 -48 -24 -110
-39 -120 -29 -8 8 -15 8 -24 1 -18 -14 -111 -25 -143 -17 -17 4 -24 11 -21 20
6 17 1 17 -26 3 -15 -8 -34 -7 -78 5 -31 9 -97 17 -146 19 -49 1 -94 6 -101
10 -20 12 -3 36 38 58 32 16 39 25 39 49 0 20 6 31 20 35 23 7 27 25 5 25 -8
0 -15 5 -16 10 0 6 0 42 -1 82 0 63 2 73 23 90 l24 18 -23 6 c-21 6 -23 11
-18 43 7 46 8 136 1 387 -4 166 -3 203 9 207 8 3 12 15 9 31 -3 14 -9 24 -13
21 -5 -3 -11 7 -14 22 -9 41 -10 304 -1 332 4 14 3 26 -4 30 -6 4 -14 46 -17
94 l-7 88 -29 -6 c-23 -6 -28 -3 -28 13 0 27 36 56 73 59 18 1 48 6 67 12 39
11 128 5 147 -10z m-471 -154 c-10 -26 -26 -16 -26 16 0 28 1 29 16 14 9 -8
13 -22 10 -30z m1463 -37 c9 -26 0 -60 -17 -66 -18 -6 -31 39 -19 66 6 12 14
22 19 22 5 0 12 -10 17 -22z m-1476 -12 c6 -15 -1 -26 -15 -26 -4 0 -8 9 -8
20 0 23 15 27 23 6z m20 -63 c8 -7 -11 -33 -24 -33 -5 0 -9 9 -9 20 0 19 20
27 33 13z m7 -73 c0 -5 -7 -10 -15 -10 -8 0 -15 5 -15 10 0 6 7 10 15 10 8 0
15 -4 15 -10z m-9 -120 c7 0 17 8 24 17 11 14 13 12 17 -20 4 -36 -4 -48 -17
-27 -11 18 -35 11 -45 -12 -7 -18 -9 -11 -9 32 0 43 2 50 9 33 5 -13 15 -23
21 -23z m100 3 c-8 -15 -10 -15 -11 -2 0 17 10 32 18 25 2 -3 -1 -13 -7 -23z
m1682 10 c-13 -2 -35 -2 -50 0 -16 2 -5 4 22 4 28 0 40 -2 28 -4z m-223 -42
c0 -28 -19 -60 -62 -107 -35 -36 -35 -41 -1 -57 21 -9 27 -9 31 1 5 15 76 92
85 92 16 0 6 -32 -12 -37 -15 -4 -18 -12 -13 -49 4 -42 3 -44 -22 -44 -14 0
-26 -4 -26 -10 0 -10 14 -14 38 -11 26 4 10 -20 -18 -25 -23 -5 -30 -12 -30
-30 0 -26 -10 -30 -94 -37 -27 -3 -44 -2 -38 2 6 4 9 30 8 61 -4 62 11 108 37
116 12 4 16 12 12 25 -4 10 -2 19 2 19 19 0 53 42 53 66 0 36 17 64 35 58 8
-4 15 -18 15 -33z m-90 2 c-1 -12 -24 -38 -37 -40 -6 -1 -10 5 -8 15 2 9 4 20
4 25 1 4 10 7 21 7 11 0 20 -3 20 -7z m313 -30 c-13 -2 -33 -2 -45 0 -13 2 -3
4 22 4 25 0 35 -2 23 -4z m90 0 c-7 -2 -19 -2 -25 0 -7 3 -2 5 12 5 14 0 19
-2 13 -5z m-1891 -45 c-7 -7 -12 -8 -12 -2 0 14 12 26 19 19 2 -3 -1 -11 -7
-17z m1436 -41 c-23 -19 -23 -19 -26 4 -3 15 4 29 20 40 22 18 23 18 26 -4 3
-13 -5 -28 -20 -40z m-1350 -33 c-3 -17 -4 -17 -20 0 -10 10 -18 27 -18 39 l0
21 21 -21 c12 -11 19 -29 17 -39z m-70 -7 c17 -19 11 -32 -13 -24 -9 4 -15 18
-14 39 0 18 3 26 6 18 3 -8 12 -23 21 -33z m1647 -6 c3 -5 1 -12 -5 -16 -5 -3
-10 1 -10 9 0 18 6 21 15 7z m-1505 -31 c0 -5 -2 -10 -4 -10 -3 0 -8 5 -11 10
-3 6 -1 10 4 10 6 0 11 -4 11 -10z m-60 -37 c0 -7 -4 -13 -10 -13 -5 0 -10 12
-10 28 0 21 2 24 10 12 5 -8 10 -21 10 -27z m-120 15 c0 -7 -5 -20 -10 -28 -8
-12 -10 -9 -10 13 0 15 5 27 10 27 6 0 10 -6 10 -12z m2005 -2 c18 -13 18 -14
-4 -26 -18 -9 -21 -17 -16 -38 10 -36 14 -103 8 -125 -3 -13 -12 -17 -31 -15
-24 3 -28 8 -33 53 -10 71 -1 123 22 130 11 4 19 13 19 21 0 18 11 18 35 0z
m-1955 -27 c0 -6 -4 -7 -10 -4 -5 3 -10 11 -10 16 0 6 5 7 10 4 6 -3 10 -11
10 -16z m1363 -5 c9 -9 -4 -35 -14 -28 -5 3 -9 12 -9 20 0 14 12 19 23 8z
m-1303 -34 c0 -31 -16 -41 -26 -15 -5 13 11 45 22 45 2 0 4 -13 4 -30z m-108
-5 c0 -5 -5 -11 -11 -13 -6 -2 -11 4 -11 13 0 9 5 15 11 13 6 -2 11 -8 11 -13z
m1409 -68 c-8 -8 -11 -7 -11 4 0 9 3 19 7 23 4 4 9 2 11 -4 3 -7 -1 -17 -7
-23z m426 17 c-3 -3 -12 -4 -19 -1 -8 3 -5 6 6 6 11 1 17 -2 13 -5z m-1827
-13 c0 -5 -7 -14 -15 -21 -13 -10 -15 -9 -15 9 0 12 6 21 15 21 8 0 15 -4 15
-9z m140 -1 c0 -5 -4 -10 -10 -10 -5 0 -10 5 -10 10 0 6 5 10 10 10 6 0 10 -4
10 -10z m-100 -65 c0 -26 -14 -33 -25 -15 -9 14 1 40 15 40 5 0 10 -11 10 -25z
m62 -15 c3 -16 1 -35 -4 -42 -4 -8 -8 4 -8 30 0 49 6 55 12 12z m-122 -29 c0
-10 -7 -24 -15 -31 -14 -12 -14 -15 1 -31 19 -21 10 -43 -13 -30 -18 9 -24 47
-16 98 4 28 8 31 24 22 10 -5 19 -18 19 -28z m1444 31 c9 -14 -9 -31 -23 -23
-7 5 -10 14 -7 20 8 13 23 14 30 3z m-1388 -49 c-10 -10 -19 5 -10 18 6 11 8
11 12 0 2 -7 1 -15 -2 -18z m34 -42 c0 -20 -27 -48 -37 -37 -8 7 17 56 29 56
4 0 8 -8 8 -19z m1330 -12 c0 -5 -4 -9 -10 -9 -5 0 -10 7 -10 16 0 8 5 12 10
9 6 -3 10 -10 10 -16z m627 -33 c4 -8 6 -38 5 -66 -4 -58 -24 -64 -33 -9 -3
19 -9 40 -13 47 -8 13 9 42 25 42 4 0 12 -6 16 -14z m-1930 -28 c-3 -7 -5 -2
-5 12 0 14 2 19 5 13 2 -7 2 -19 0 -25z m-160 -37 c0 -14 4 -38 8 -53 5 -18 3
-28 -4 -28 -6 0 -11 5 -11 12 0 6 -7 19 -16 29 -19 21 -10 95 10 77 6 -6 12
-22 13 -37z m41 15 c3 -12 -1 -17 -10 -14 -7 3 -15 13 -16 22 -3 12 1 17 10
14 7 -3 15 -13 16 -22z m1402 15 c0 -14 -18 -23 -30 -16 -6 4 -8 11 -5 16 8
12 35 12 35 0z m53 -71 c-3 -12 -8 -19 -11 -16 -5 6 5 36 12 36 2 0 2 -9 -1
-20z m-1423 -14 c0 -15 7 -26 19 -29 15 -3 20 -18 25 -71 4 -36 11 -68 15 -70
4 -3 9 -26 9 -52 1 -25 5 -51 8 -56 3 -5 -2 -18 -11 -28 -16 -17 -15 -19 5
-30 25 -13 50 -67 50 -108 0 -15 5 -33 10 -38 6 -6 21 -50 35 -100 14 -49 34
-117 46 -151 11 -34 18 -67 14 -72 -3 -6 -3 -17 2 -23 4 -7 8 -15 8 -18 1 -3
13 -28 28 -57 14 -28 30 -71 33 -95 4 -24 31 -112 61 -196 29 -84 53 -162 53
-173 0 -11 10 -33 22 -50 18 -24 20 -33 11 -48 -9 -14 -8 -21 7 -34 11 -9 24
-35 30 -59 6 -24 18 -59 26 -80 24 -54 9 -88 -45 -106 -24 -8 -46 -10 -51 -6
-14 17 -60 229 -63 291 -1 42 -6 63 -14 63 -19 0 -29 27 -48 122 -18 90 -38
125 -56 97 -5 -8 -9 -24 -9 -36 0 -13 -2 -23 -5 -23 -2 0 -26 13 -53 29 l-49
29 -171 -2 c-112 -1 -173 2 -175 8 -2 7 -13 7 -31 -2 -15 -6 -46 -12 -69 -12
-50 0 -87 -9 -87 -21 0 -4 -16 -41 -35 -82 -19 -41 -35 -78 -35 -83 0 -23 -63
-171 -81 -190 -14 -15 -18 -29 -13 -50 4 -20 0 -36 -13 -51 -10 -13 -26 -34
-36 -48 -21 -30 -37 -31 -67 -7 l-22 18 36 54 c20 30 36 61 36 70 0 8 11 32
25 52 14 20 25 40 25 44 0 3 27 69 60 145 33 76 60 141 60 143 0 3 -7 3 -15 0
-20 -8 -20 35 0 82 12 30 19 36 39 32 20 -4 25 0 30 22 3 15 19 56 36 91 17
35 51 116 76 179 40 103 69 172 81 192 2 5 -8 19 -23 33 -25 23 -25 25 -8 32
11 4 25 14 31 22 11 14 14 14 24 1 8 -12 9 -9 4 13 -7 32 2 70 15 62 5 -3 16
17 25 45 9 27 20 50 23 50 4 0 7 17 6 37 -1 21 4 46 12 57 8 11 14 39 14 61 0
31 6 47 24 64 16 15 22 29 18 43 -4 18 -2 20 21 14 20 -5 27 -2 32 15 4 11 4
31 1 45 -4 14 -2 24 4 24 5 0 10 -11 10 -24z m57 2 c-3 -8 -6 -5 -6 6 -1 11 2
17 5 13 3 -3 4 -12 1 -19z m1343 3 c0 -11 -4 -22 -8 -25 -14 -9 -35 12 -29 28
9 23 37 20 37 -3z m559 -20 c36 -33 41 -61 11 -61 -14 0 -20 7 -20 23 0 12 -9
28 -20 35 -12 7 -18 17 -15 22 9 14 9 14 44 -19z m-259 4 c0 -8 -4 -15 -10
-15 -5 0 -10 7 -10 15 0 8 5 15 10 15 6 0 10 -7 10 -15z m-280 -36 c0 -11 -4
-18 -10 -14 -5 3 -7 12 -3 20 7 21 13 19 13 -6z m-40 -40 c-10 -18 -8 -22 19
-32 52 -19 39 -38 -21 -33 -29 3 -54 5 -56 6 -2 0 4 10 12 22 9 12 16 30 16
40 0 11 8 18 20 18 18 0 19 -3 10 -21z m575 -9 c-3 -5 2 -15 10 -23 17 -18 20
-53 5 -62 -5 -3 -10 -17 -10 -31 0 -13 -4 -24 -10 -24 -15 0 -29 35 -24 57 3
12 1 31 -6 42 -16 30 -4 60 20 54 11 -3 18 -9 15 -13z m-2085 -85 c0 -21 -17
-18 -30 4 -15 28 -13 33 10 21 11 -6 20 -17 20 -25z m1957 -12 c-3 -10 -5 -2
-5 17 0 19 2 27 5 18 2 -10 2 -26 0 -35z m-439 5 c19 -19 14 -28 -18 -28 -18
0 -30 5 -30 13 0 28 27 36 48 15z m-44 -57 c-7 -8 -35 9 -29 19 4 6 11 5 20
-3 7 -6 11 -14 9 -16z m66 -1 c0 -5 -2 -10 -4 -10 -3 0 -8 5 -11 10 -3 6 -1
10 4 10 6 0 11 -4 11 -10z m87 4 c-3 -3 -12 -4 -19 -1 -8 3 -5 6 6 6 11 1 17
-2 13 -5z m-101 -20 c12 -3 26 -15 32 -27 l11 -22 0 23 c1 15 7 22 22 22 19 0
20 -4 14 -42 -4 -24 -12 -48 -18 -53 -7 -6 -20 -24 -29 -40 -21 -37 -39 -38
-49 -2 -4 15 -3 27 2 27 20 0 8 57 -16 80 -14 13 -25 27 -25 32 0 9 25 10 56
2z m-68 -102 c3 -27 0 -32 -19 -32 -17 0 -20 4 -15 23 3 12 6 28 6 35 0 28 25
4 28 -26z m-1568 -104 c0 -10 -7 -18 -15 -18 -15 0 -21 40 -8 53 9 9 23 -13
23 -35z m1489 13 c-15 -5 -22 6 -14 19 6 9 10 9 16 -1 5 -8 4 -15 -2 -18z
m531 14 c0 -8 -4 -15 -9 -15 -5 0 -11 7 -15 15 -3 9 0 15 9 15 8 0 15 -7 15
-15z m-403 -41 c-3 -3 -12 -4 -19 -1 -8 3 -5 6 6 6 11 1 17 -2 13 -5z m-83
-26 c-4 -14 0 -18 23 -18 26 0 28 -3 28 -40 1 -37 -1 -40 -27 -40 -15 0 -28 5
-28 10 0 6 -13 10 -29 10 -30 0 -49 24 -28 34 9 5 9 7 0 12 -20 9 -15 30 10
41 34 16 58 12 51 -9z m456 2 c0 -5 -12 -10 -27 -9 l-28 1 25 8 c14 4 26 8 28
9 1 1 2 -3 2 -9z m-2054 -96 c-5 -13 -10 -14 -18 -6 -6 6 -8 18 -4 28 5 13 10
14 18 6 6 -6 8 -18 4 -28z m1528 -6 c6 -4 23 -8 38 -8 23 0 27 -5 32 -37 3
-21 4 -71 3 -110 -2 -40 0 -73 5 -73 4 0 8 -20 8 -45 0 -59 -25 -62 -40 -5 -6
22 -15 40 -20 40 -6 0 -10 9 -10 20 0 11 5 20 10 20 6 0 10 11 10 25 0 16 -6
25 -15 25 -12 0 -15 -16 -15 -84 0 -58 -4 -87 -13 -95 -8 -6 -17 -8 -21 -4 -4
4 -26 7 -49 8 -40 0 -42 2 -45 33 -4 39 19 44 36 7 6 -14 16 -25 21 -25 25 0
32 32 29 146 -3 116 -3 118 -27 124 -28 6 -41 30 -17 30 8 0 26 11 38 23 19
20 24 21 27 8 2 -9 8 -19 15 -23z m496 32 c0 -5 -4 -10 -9 -10 -6 0 -13 5 -16
10 -3 6 1 10 9 10 9 0 16 -4 16 -10z m-45 -90 c3 -5 1 -10 -4 -10 -6 0 -11 5
-11 10 0 6 2 10 4 10 3 0 8 -4 11 -10z m-540 -58 c2 -14 -8 -36 -30 -62 l-34
-40 1 31 c1 18 11 41 25 55 12 13 23 29 23 35 0 18 10 5 15 -19z m545 -17 c-9
-11 -9 -22 -1 -47 9 -24 8 -34 -1 -40 -20 -13 -54 -5 -49 12 2 8 3 29 2 47 -1
27 2 32 26 36 16 2 30 5 32 6 2 0 -2 -6 -9 -14z m-90 -35 c-6 -10 -7 -25 -4
-34 6 -17 -26 -38 -42 -28 -6 4 -12 26 -12 49 -2 36 1 42 21 45 32 5 49 -10
37 -32z m-1911 -4 c-13 -28 -24 -33 -34 -16 -6 9 36 53 43 45 1 -1 -3 -14 -9
-29z m1811 21 c0 -8 -3 -17 -7 -21 -4 -4 -8 -15 -8 -24 0 -9 -9 -18 -19 -20
-14 -3 -17 0 -13 12 9 23 -2 46 -22 46 -14 0 -14 2 -1 10 22 15 70 12 70 -3z
m-96 -38 c4 -23 3 -46 -2 -53 -5 -6 -8 -27 -6 -48 4 -33 2 -36 -17 -31 -19 5
-21 11 -17 74 2 42 0 71 -7 73 -5 2 -2 5 8 5 9 1 17 6 17 11 0 6 4 10 9 10 5
0 11 -19 15 -41z m-216 -20 c2 -15 -4 -28 -17 -36 -18 -12 -21 -10 -27 12 -7
27 11 58 30 52 6 -2 12 -14 14 -28z m552 -39 c0 -5 -4 -10 -10 -10 -5 0 -10 5
-10 10 0 6 5 10 10 10 6 0 10 -4 10 -10z m-44 -32 c10 -10 14 -21 10 -25 -10
-10 -46 -11 -46 -1 0 5 -9 6 -20 3 -12 -4 -20 -2 -20 5 0 6 -8 10 -17 9 -36
-3 -53 1 -53 15 0 23 125 18 146 -6z m-636 -49 c0 -6 -4 -7 -10 -4 -5 3 -10 1
-10 -5 0 -6 -4 -8 -10 -5 -6 4 -5 11 3 19 13 15 27 12 27 -5z m591 1 c17 -10
18 -13 5 -25 -19 -20 -29 -19 -43 4 -12 19 -9 24 15 30 2 1 12 -4 23 -9z
m-101 -19 c0 -10 -7 -21 -15 -25 -11 -4 -15 1 -15 19 0 16 6 25 15 25 8 0 15
-9 15 -19z m-412 -66 c-7 -9 -19 -23 -27 -31 -13 -14 -12 -19 1 -41 22 -37 -1
-146 -30 -141 -4 0 -22 -5 -40 -13 -23 -9 -31 -18 -26 -29 13 -33 15 -72 4
-106 -13 -38 1 -70 27 -60 8 4 13 -3 13 -18 0 -18 -7 -25 -31 -30 -17 -3 -35
-3 -40 0 -13 7 -11 48 2 61 7 7 9 25 5 46 -8 45 -41 42 -44 -5 -3 -33 -21 -66
-37 -64 -5 0 -11 -11 -13 -26 -4 -34 16 -40 107 -36 l63 3 2 77 c0 43 4 78 9
78 4 0 4 12 1 26 -5 20 -3 25 7 22 13 -4 19 -31 20 -88 1 -25 17 -43 31 -34 4
3 8 18 8 34 0 22 4 28 15 24 8 -3 28 -1 44 4 26 9 31 8 36 -9 7 -20 25 -26 25
-8 0 6 7 8 16 5 14 -5 16 -1 11 29 -3 21 -2 33 4 30 5 -4 9 2 10 12 0 11 3 13
6 5 2 -6 9 -9 15 -6 7 5 9 -3 4 -22 -4 -16 -12 -30 -17 -32 -12 -5 -12 -52 1
-52 5 0 12 11 16 24 4 17 15 27 36 31 35 8 45 0 54 -41 4 -23 2 -33 -10 -37
-9 -4 -16 -1 -16 6 0 8 -4 6 -10 -3 -8 -12 -10 -10 -10 10 0 17 -3 21 -8 12
-5 -7 -6 -26 -4 -44 4 -27 6 -29 15 -12 10 17 11 17 17 -1 11 -32 0 -45 -36
-45 -28 0 -34 4 -34 21 0 16 -4 19 -17 13 -10 -4 -30 -7 -44 -7 -23 0 -26 -4
-23 -28 2 -19 -3 -33 -15 -41 -10 -7 -20 -20 -24 -28 -3 -10 -6 -7 -6 9 -1 19
-5 22 -23 17 -13 -3 -33 -6 -45 -6 -13 0 -23 -3 -23 -8 0 -11 64 -9 73 3 4 6
5 -11 2 -38 -4 -37 -2 -49 10 -53 8 -3 12 -10 9 -15 -3 -5 0 -9 7 -9 7 0 9 -3
5 -7 -4 -5 -13 0 -20 9 -12 16 -15 16 -32 2 -14 -11 -15 -17 -6 -20 22 -10 12
-21 -14 -16 -17 3 -25 1 -21 -6 4 -5 0 -12 -8 -16 -22 -8 -18 12 5 26 32 20
24 28 -30 28 -43 0 -50 3 -50 20 0 11 5 20 10 20 6 0 10 7 10 15 0 8 -3 14 -7
14 -27 -4 -123 2 -123 9 0 8 41 13 118 13 36 1 52 5 52 14 0 20 -28 26 -112
24 -43 -1 -81 0 -84 3 -2 3 -23 3 -45 1 -39 -5 -40 -4 -30 15 15 29 28 35 35
17 7 -19 26 -20 26 -1 0 7 -9 16 -20 19 -12 3 -20 14 -20 26 0 18 -4 20 -24
15 -41 -10 -46 38 -5 51 11 4 17 10 14 15 -3 4 2 13 10 20 8 7 15 9 15 4 0 -5
5 -2 10 6 7 11 10 12 10 2 0 -8 -10 -22 -22 -31 -25 -21 -17 -41 18 -41 23 0
24 3 18 35 -5 30 -4 35 14 35 16 0 21 9 26 52 5 37 4 53 -6 59 -10 7 -9 9 5 9
12 0 17 -8 18 -32 0 -28 2 -30 9 -13 7 17 9 17 9 3 1 -10 8 -18 17 -18 12 0
15 7 12 25 -3 14 -1 25 3 25 5 0 9 12 9 26 0 23 -3 25 -24 20 -28 -7 -36 11
-26 59 3 17 2 37 -4 46 -11 19 0 57 14 43 4 -5 11 -25 14 -44 3 -19 9 -36 14
-38 5 -1 8 -15 6 -30 -2 -15 2 -5 10 21 8 28 12 69 9 99 -3 35 -2 48 6 44 6
-4 11 -13 11 -19 0 -7 9 -18 20 -25 19 -11 20 -10 20 33 0 38 4 47 23 54 18 7
24 4 35 -15 10 -20 10 -27 0 -39z m462 9 c0 -9 -5 -14 -12 -12 -18 6 -21 28
-4 28 9 0 16 -7 16 -16z m-244 -10 c-10 -27 4 -64 26 -64 15 0 19 5 15 20 -3
11 -1 18 4 14 13 -8 11 -62 -3 -70 -7 -5 -8 -2 -3 7 6 11 5 11 -4 3 -15 -14
-5 -60 15 -68 8 -3 12 -2 9 3 -3 5 5 11 17 13 13 2 23 9 23 17 0 29 84 42 105
16 7 -8 9 -15 4 -16 -73 -7 -94 -15 -94 -37 0 -11 -7 -26 -17 -33 -18 -16 -23
-16 -33 1 -5 8 -12 -1 -19 -22 l-12 -33 -16 29 c-11 21 -14 44 -10 77 4 31 2
51 -5 55 -7 4 -8 3 -4 -4 4 -7 2 -12 -3 -12 -6 0 -11 12 -12 28 0 15 -2 42 -5
60 -3 24 0 32 12 32 11 0 14 -5 10 -16z m154 -4 c0 -11 -2 -20 -5 -20 -2 0 -9
9 -15 20 -9 16 -8 20 5 20 8 0 15 -9 15 -20z m-330 -55 c0 -14 -4 -25 -9 -25
-4 0 -6 11 -3 25 2 14 6 25 8 25 2 0 4 -11 4 -25z m270 0 c-7 -8 -14 -15 -15
-15 -2 0 -5 7 -9 15 -4 10 1 15 16 15 17 0 18 -2 8 -15z m-220 -85 c0 -11 -4
-20 -10 -20 -5 0 -10 9 -10 20 0 11 5 20 10 20 6 0 10 -9 10 -20z m321 -47
c-17 -21 -31 -42 -31 -48 0 -6 -9 -16 -20 -23 -11 -7 -20 -23 -20 -36 0 -38
-16 -39 -34 -2 -21 45 -21 68 1 64 11 -2 22 6 28 20 6 13 22 26 37 29 15 3 35
13 45 23 31 30 27 13 -6 -27z m-254 -10 c-3 -10 -5 -4 -5 12 0 17 2 24 5 18 2
-7 2 -21 0 -30z m-124 -4 c-6 -6 -17 -8 -24 -3 -9 5 -8 9 7 14 23 9 31 3 17
-11z m57 11 c0 -5 -5 -10 -11 -10 -5 0 -7 5 -4 10 3 6 8 10 11 10 2 0 4 -4 4
-10z m-342 -83 c-6 -25 -15 -44 -19 -41 -13 8 -4 75 11 84 21 13 22 8 8 -43z
m-68 -13 c0 -8 -4 -14 -9 -14 -6 0 -9 9 -8 19 1 22 17 18 17 -5z m360 -20 c0
-8 -4 -12 -10 -9 -5 3 -10 10 -10 16 0 5 5 9 10 9 6 0 10 -7 10 -16z m177 -6
c-3 -8 -6 -5 -6 6 -1 11 2 17 5 13 3 -3 4 -12 1 -19z m-397 -123 c0 -14 -4
-25 -10 -25 -5 0 -10 11 -10 25 0 14 5 25 10 25 6 0 10 -11 10 -25z m-177 -19
c22 -33 32 -76 18 -76 -6 0 -11 -7 -11 -15 0 -13 11 -15 63 -11 57 5 63 3 64
-14 1 -11 -1 -20 -5 -21 -4 0 -38 -1 -76 -2 -45 -1 -71 -6 -74 -14 -2 -7 0
-14 5 -14 4 -1 18 -3 30 -4 12 -1 28 -5 37 -8 8 -3 18 -2 21 3 4 7 13 7 24 0
10 -5 21 -6 25 -3 3 3 6 1 6 -5 0 -13 -38 -25 -61 -20 -14 3 -15 -4 -4 -34 6
-14 2 -18 -19 -18 -21 0 -26 5 -26 25 0 25 -23 35 -35 15 -3 -5 1 -10 9 -10 9
0 16 -5 16 -12 0 -6 -3 -8 -7 -5 -3 4 -11 0 -17 -7 -13 -17 -116 -28 -116 -13
0 6 -12 23 -26 38 -25 26 -25 28 -10 58 9 17 21 31 26 31 6 0 10 12 10 28 0
15 4 23 8 17 10 -14 45 -12 49 2 4 10 8 9 20 -2 20 -21 33 -19 33 6 0 15 -5
19 -15 15 -10 -3 -15 1 -16 12 0 10 -3 12 -6 5 -2 -7 -9 -13 -14 -13 -4 0 -6
7 -3 15 7 17 34 21 34 5 0 -18 18 -10 23 10 3 11 2 20 -2 20 -4 0 -7 9 -8 20
-2 27 11 25 30 -4z m107 -246 c0 -5 -4 -10 -9 -10 -6 0 -13 5 -16 10 -3 6 1
10 9 10 9 0 16 -4 16 -10z m190 0 c13 -8 13 -13 2 -31 -8 -11 -9 -18 -3 -15 5
4 12 3 14 -1 3 -5 -17 -15 -44 -25 -48 -16 -50 -15 -60 3 -19 37 -7 63 31 70
19 4 37 7 40 8 3 0 12 -4 20 -9z m-529 -32 c1 -7 0 -17 -1 -23 -1 -5 -4 -26
-5 -45 -3 -37 -25 -56 -25 -21 0 12 -4 21 -10 21 -5 0 -10 -6 -10 -13 0 -6
-13 -18 -28 -25 -16 -7 -34 -24 -41 -38 -6 -15 -14 -24 -17 -21 -3 3 0 16 7
29 7 12 15 34 17 48 4 27 29 60 45 60 5 0 16 -8 23 -17 12 -16 13 -14 4 11 -8
22 -8 31 2 38 19 12 38 10 39 -4z m64 -18 c-7 -23 2 -60 16 -60 5 0 9 7 9 15
0 28 27 15 34 -15 l6 -30 92 -2 c92 -1 92 -1 33 -9 -33 -4 -75 -11 -92 -14
-22 -5 -33 -3 -33 4 0 6 -9 11 -20 11 -11 0 -20 -4 -20 -10 0 -5 -9 -10 -21
-10 -13 0 -25 -11 -35 -35 -8 -19 -18 -35 -22 -35 -13 0 -33 65 -22 68 5 2 10
10 10 17 0 7 14 16 30 20 17 4 30 11 30 16 0 6 -5 7 -12 3 -6 -4 -8 -3 -4 4 3
6 2 22 -4 37 -11 30 -6 45 16 45 11 0 13 -6 9 -20z m345 -25 c6 -19 15 -33 20
-30 12 8 22 -27 10 -39 -7 -7 -10 -6 -10 3 0 7 -4 9 -10 6 -5 -3 -10 -2 -10 3
0 5 -9 12 -20 15 -14 4 -20 14 -20 34 0 54 23 58 40 8z m-445 -122 c-2 -10 -4
-25 -4 -33 -1 -12 -3 -13 -10 -1 -10 15 -3 51 9 51 5 0 7 -8 5 -17z m-109 -17
c4 -17 11 -23 25 -21 20 4 27 -19 9 -30 -14 -9 -12 -31 5 -48 8 -8 11 -17 8
-21 -4 -3 -1 -6 6 -6 7 0 9 -9 5 -25 -4 -15 -2 -25 5 -25 6 0 11 12 11 28 0
21 2 24 10 12 6 -10 10 -11 10 -2 0 6 5 12 11 12 6 0 8 -7 5 -16 -7 -19 13
-94 26 -94 11 0 14 64 6 122 -1 10 -8 20 -15 22 -20 8 -15 26 8 26 13 0 18 4
13 13 -6 9 -4 9 7 1 22 -18 59 1 59 30 0 43 29 50 144 37 56 -6 110 -10 121
-9 17 3 20 -2 18 -27 -4 -47 -6 -52 -17 -52 -6 0 -23 -3 -38 -6 -24 -5 -28 -2
-28 18 0 16 -5 22 -17 21 -16 -3 -34 -34 -27 -47 1 -3 -10 -3 -26 -1 -22 3
-32 -1 -36 -13 -8 -20 12 -36 34 -27 9 3 13 0 10 -8 -6 -18 -32 -20 -61 -5
-28 15 -37 5 -37 -40 0 -33 -10 -55 -25 -55 -15 0 -25 31 -25 78 0 22 -5 32
-15 32 -10 0 -15 -10 -15 -34 0 -42 9 -68 21 -60 5 3 9 -9 9 -25 0 -42 -2 -46
-25 -46 -11 0 -26 -4 -32 -8 -15 -10 -18 -41 -3 -32 6 3 10 1 10 -4 0 -6 7
-11 16 -11 8 0 12 -4 9 -10 -3 -5 -14 -10 -24 -10 -10 0 -21 -9 -24 -20 -5
-20 -33 -37 -44 -26 -3 3 -1 12 5 19 16 19 5 27 -34 27 -18 0 -37 6 -41 14 -4
8 -17 15 -28 18 -11 2 -21 11 -23 21 -2 10 0 17 5 16 50 -9 77 19 49 50 -13
14 -27 18 -54 15 -31 -4 -43 1 -69 26 -18 16 -33 37 -33 45 0 9 -4 13 -10 10
-5 -3 -14 -4 -20 0 -14 9 10 55 29 55 14 0 14 -2 1 -10 -12 -8 -12 -10 -1 -10
8 0 12 -3 8 -6 -3 -4 0 -13 8 -20 15 -16 59 -19 50 -4 -3 6 -2 10 4 10 13 0
-13 63 -28 68 -12 4 -15 42 -3 42 4 0 17 -7 29 -15 12 -9 24 -11 27 -6 4 5 1
11 -6 13 -7 3 -9 14 -4 31 8 35 43 37 52 3z m496 -118 c-7 -7 -12 -8 -12 -2 0
14 12 26 19 19 2 -3 -1 -11 -7 -17z m-212 -74 c0 -8 -4 -14 -9 -14 -6 0 -9 9
-8 19 1 22 17 18 17 -5z m-496 -10 c12 -12 16 -12 17 -2 0 7 5 2 10 -11 6 -15
6 -28 -1 -36 -5 -6 -6 -16 -2 -20 4 -5 -1 -5 -10 -2 -12 4 -18 1 -18 -9 0 -8
4 -12 10 -9 13 8 47 16 85 21 17 2 39 5 49 6 10 2 21 -3 24 -11 3 -10 -1 -13
-16 -9 -12 4 -30 -3 -48 -19 -16 -14 -22 -24 -14 -23 29 4 49 0 62 -14 8 -7
26 -20 42 -28 23 -12 29 -22 31 -56 3 -39 -16 -74 -32 -58 -3 3 -2 6 4 6 17 0
2 60 -18 71 -15 7 -23 4 -41 -16 -16 -19 -24 -22 -35 -14 -10 9 -13 8 -13 -4
0 -9 10 -17 22 -19 13 -2 24 -10 26 -18 2 -13 -7 -15 -43 -14 -25 1 -52 7 -60
14 -10 8 -15 9 -15 2 0 -6 13 -19 30 -28 16 -10 32 -24 34 -31 9 -21 -32 -15
-46 7 -8 12 -24 20 -40 20 -24 0 -28 -4 -28 -27 0 -49 -13 -54 -46 -19 -37 38
-34 53 12 62 24 4 34 12 34 24 0 37 11 50 31 39 26 -13 35 -6 43 33 l6 32 21
-23 c20 -21 23 -21 37 -7 18 18 9 32 -23 38 -11 1 -23 7 -27 13 -4 5 -22 8
-41 7 -29 -2 -40 3 -60 30 -25 31 -25 32 -7 55 10 13 17 33 15 43 -5 24 17 26
39 4z m476 -44 c0 -11 -4 -20 -9 -20 -5 0 -7 9 -4 20 3 11 7 20 9 20 2 0 4 -9
4 -20z m-425 -10 c3 -5 -1 -10 -10 -10 -9 0 -13 5 -10 10 3 6 8 10 10 10 2 0
7 -4 10 -10z m-125 -46 c0 -8 -10 -14 -25 -14 -21 0 -25 5 -25 30 0 30 0 30
25 14 14 -9 25 -23 25 -30z m-64 -25 c10 -17 -7 -26 -63 -34 -48 -6 -53 -5
-53 12 0 11 3 23 7 26 11 11 101 8 109 -4z m44 -9 c0 -5 -4 -10 -10 -10 -5 0
-10 5 -10 10 0 6 5 10 10 10 6 0 10 -4 10 -10z m103 -45 c-6 -18 -34 -16 -41
3 -2 7 6 12 22 12 19 0 24 -4 19 -15z m-329 -64 c3 -5 15 -7 26 -4 18 5 20 1
18 -33 -1 -22 1 -49 6 -61 7 -21 4 -23 -29 -23 -41 0 -65 18 -65 49 0 27 15
34 41 21 15 -9 24 -9 32 -1 8 8 8 11 -2 11 -7 0 -9 5 -5 12 5 8 2 9 -9 5 -10
-4 -17 -1 -17 6 0 8 -3 8 -9 -2 -10 -16 -31 -6 -31 15 0 15 35 20 44 5z m-76
-68 c8 -25 8 -32 -1 -30 -8 1 -12 -12 -12 -35 0 -46 -5 -51 -32 -30 -19 15
-21 22 -14 60 5 24 17 49 27 57 11 7 19 13 20 12 1 -1 6 -17 12 -34z m-100
-31 c-1 -15 1 -33 5 -39 4 -6 2 -15 -4 -18 -5 -4 -9 -21 -7 -39 3 -36 -15 -49
-20 -14 -2 13 -9 29 -15 37 -9 10 -7 16 7 26 9 7 16 22 15 32 -3 17 7 43 17
43 2 0 3 -13 2 -28z m372 -10 c0 -4 -4 -13 -9 -20 -7 -12 -12 -12 -30 0 -18
11 -26 11 -51 -4 -29 -16 -30 -16 -30 1 0 10 2 20 5 23 8 7 115 8 115 0z
m-200 -42 c0 -11 9 -25 20 -32 11 -7 20 -20 20 -28 0 -13 1 -13 11 0 8 12 9
10 7 -10 -2 -15 -10 -26 -22 -28 -15 -3 -18 0 -13 20 5 19 2 24 -15 25 -22 2
-40 21 -32 34 2 4 0 10 -6 14 -17 10 -11 25 10 25 13 0 20 -7 20 -20z m140
-30 c25 16 52 12 48 -7 -2 -13 -11 -17 -31 -15 -15 2 -34 -3 -43 -12 -12 -12
-12 -16 -2 -16 10 0 9 -3 -2 -10 -12 -8 -9 -10 13 -10 19 0 27 -4 25 -12 -8
-24 -34 -19 -49 9 -8 15 -17 30 -21 33 -3 3 -4 17 -1 32 5 25 7 26 27 13 14
-9 26 -11 36 -5z m-402 -13 c6 -5 12 -19 12 -31 0 -12 5 -27 12 -34 9 -9 7
-16 -7 -32 -14 -16 -15 -23 -5 -34 10 -13 7 -16 -14 -22 -13 -3 -29 -3 -34 0
-5 3 -12 -3 -15 -14 -7 -28 -34 -36 -56 -16 -23 21 -37 20 -54 -4 -8 -11 -17
-17 -20 -13 -10 10 -8 43 2 43 19 0 22 39 6 64 -16 23 -15 25 7 28 14 2 22 9
20 18 -2 8 0 12 3 8 4 -4 16 -3 26 3 15 8 20 6 25 -8 3 -10 9 -25 13 -33 7
-13 3 -15 -25 -12 -29 4 -34 1 -34 -16 0 -11 8 -29 18 -41 15 -19 20 -19 42
-8 14 7 24 21 24 31 -1 9 9 28 22 41 13 13 24 30 24 38 0 23 -28 40 -55 33
-26 -7 -33 2 -14 21 11 11 57 6 77 -10z m182 -6 c0 -5 16 -16 36 -26 33 -15
34 -18 18 -30 -15 -11 -22 -10 -41 2 -30 20 -54 2 -51 -38 3 -40 40 -39 69 0
l22 30 19 -25 c22 -27 63 -32 72 -9 3 8 13 15 23 15 14 0 11 -7 -15 -31 -27
-25 -43 -31 -85 -33 -29 -2 -62 -6 -74 -11 -17 -5 -23 -3 -23 6 -1 8 -11 22
-23 31 -12 10 -33 26 -46 36 l-24 19 41 7 c31 5 42 11 42 24 0 19 18 42 32 42
4 0 8 -4 8 -9z m-465 -122 c-10 -15 -25 -10 -19 6 4 8 10 12 15 9 5 -3 7 -10
4 -15z m385 -19 c0 -12 -28 -25 -36 -17 -9 9 6 27 22 27 8 0 14 -5 14 -10z
m-459 -94 c33 -34 36 -46 13 -46 -11 0 -15 -6 -11 -20 4 -15 0 -20 -15 -20
-16 0 -19 5 -16 25 3 14 -1 30 -8 36 -8 6 -14 17 -14 25 0 22 -41 44 -61 33
-14 -7 -17 -17 -12 -40 5 -27 3 -31 -13 -27 -22 4 -28 44 -8 52 8 3 14 12 14
21 0 10 10 15 28 15 15 0 36 7 47 16 19 14 20 13 23 -13 2 -15 17 -41 33 -57z
m57 36 c3 -18 -2 -22 -22 -22 -30 0 -31 3 -14 30 16 25 32 21 36 -8z m67 -42
l-16 -31 -21 26 c-17 22 -18 29 -7 35 7 5 16 7 20 4 4 -2 13 4 20 13 13 15 14
15 17 0 2 -9 -4 -30 -13 -47z m114 13 c17 4 36 0 49 -9 23 -16 52 -9 52 12 0
16 5 16 38 8 12 -4 22 -11 22 -16 0 -5 -4 -7 -9 -4 -5 3 -14 -1 -21 -8 -20
-25 -161 -26 -185 -3 -20 21 -10 44 11 26 8 -6 27 -9 43 -6z m-159 -72 c0 -13
-28 -22 -35 -11 -3 4 1 11 7 13 20 8 28 8 28 -2z m-172 -29 c4 -23 -17 -26
-47 -8 -12 8 -11 11 5 23 24 17 38 12 42 -15z m245 13 c-4 -15 -36 -12 -41 3
-3 9 3 13 19 10 13 -1 23 -7 22 -13z m-653 -55 c0 -5 -4 -10 -9 -10 -6 0 -13
5 -16 10 -3 6 1 10 9 10 9 0 16 -4 16 -10z"/>
<path d="M9404 9743 c-43 -136 -138 -363 -152 -363 -4 0 -7 -14 -8 -30 -1 -17
-17 -63 -36 -103 -20 -39 -39 -83 -43 -97 -3 -14 -17 -50 -30 -80 -38 -90 -39
-100 -16 -100 11 0 22 -4 26 -9 3 -5 21 -7 40 -4 40 6 122 -13 147 -35 14 -12
20 -12 36 0 14 9 40 12 90 8 75 -5 242 9 242 21 0 4 -16 48 -35 98 -19 49 -35
106 -35 125 0 21 -6 36 -15 40 -8 3 -15 11 -15 18 0 7 -11 40 -25 73 -13 33
-27 80 -31 105 -4 25 -13 54 -21 66 -7 12 -20 47 -29 79 -8 33 -19 64 -23 69
-5 6 -16 37 -25 68 -18 61 -33 80 -42 51z"/>
<path d="M9220 8200 c-19 -4 -52 -11 -72 -14 l-38 -7 0 -54 c0 -30 -5 -66 -12
-79 -9 -21 -8 -29 5 -44 12 -13 17 -42 19 -107 l3 -90 50 -5 c46 -5 50 -7 55
-35 l5 -30 14 33 c11 27 22 35 70 48 31 9 63 23 72 30 8 8 20 14 26 14 22 0
112 108 122 146 14 53 12 114 -4 108 -7 -3 -15 2 -18 10 -8 21 -108 67 -155
71 -20 2 -53 6 -72 8 -19 3 -51 2 -70 -3z"/>
<path d="M9146 7681 c-13 -14 -15 -28 -10 -60 5 -32 3 -46 -10 -60 -13 -14
-15 -24 -8 -38 8 -15 11 -141 12 -468 0 -16 3 -58 6 -92 5 -52 3 -64 -10 -69
-18 -7 -21 -31 -5 -36 7 -2 13 -39 15 -95 4 -77 2 -93 -12 -101 -14 -8 -11
-11 15 -20 17 -6 31 -16 31 -21 0 -6 6 -8 14 -5 8 3 30 -1 48 -10 52 -24 153
-37 210 -26 28 6 53 8 56 6 2 -3 18 3 35 13 18 10 46 21 62 25 96 24 255 138
292 210 19 37 50 69 78 81 19 7 19 8 -5 15 -14 4 -24 13 -22 21 37 155 21 260
-56 371 -16 24 -31 50 -33 59 -2 8 -35 44 -74 78 -38 35 -73 72 -77 81 -4 12
-13 17 -27 13 -11 -3 -35 6 -57 21 -21 14 -43 26 -48 26 -5 0 -24 11 -42 25
-18 14 -43 25 -56 24 -13 0 -54 11 -93 25 -90 33 -203 36 -229 7z"/>
<path d="M8675 6774 c-4 -16 -19 -58 -35 -94 -15 -36 -31 -76 -35 -90 -13 -46
-76 -170 -86 -170 -6 0 -7 -5 -4 -10 9 -14 -32 -133 -54 -162 -10 -13 -22 -38
-26 -57 -4 -18 -17 -56 -30 -85 -39 -87 -40 -96 -11 -96 14 0 26 -4 26 -9 0
-6 16 -7 35 -4 40 6 122 -13 147 -35 14 -12 20 -12 36 0 14 9 40 12 90 8 75
-5 242 9 242 21 0 4 -16 48 -35 98 -19 49 -35 106 -35 125 0 19 -5 36 -11 38
-20 7 -94 222 -83 240 3 4 1 8 -4 8 -5 0 -14 19 -21 43 -7 23 -24 69 -37 102
-13 33 -24 67 -24 75 0 9 -6 24 -14 35 -7 11 -14 24 -14 28 -1 22 -12 16 -17
-9z"/>
<path d="M9776 5945 c-4 -14 -1 -34 6 -45 23 -37 36 -21 30 36 -5 40 -27 45
-36 9z"/>
<path d="M9863 5463 c-43 -6 -42 -18 1 -21 23 -2 36 3 40 13 3 8 2 14 -2 13
-4 0 -22 -3 -39 -5z"/>
<path d="M10101 5924 c0 -11 3 -14 6 -6 3 7 2 16 -1 19 -3 4 -6 -2 -5 -13z"/>
<path d="M9430 5450 c0 -5 9 -10 20 -10 11 0 20 5 20 10 0 6 -9 10 -20 10 -11
0 -20 -4 -20 -10z"/>
<path d="M9398 5439 c-10 -5 -18 -19 -18 -29 0 -30 17 -24 29 10 5 17 9 30 8
30 -1 0 -10 -5 -19 -11z"/>
<path d="M9795 5340 c-3 -5 -1 -10 4 -10 6 0 11 5 11 10 0 6 -2 10 -4 10 -3 0
-8 -4 -11 -10z"/>
<path d="M9558 5118 c8 -8 17 -8 34 0 22 10 21 11 -11 11 -27 1 -32 -2 -23
-11z"/>
<path d="M9370 5016 c0 -9 5 -16 10 -16 6 0 10 4 10 9 0 6 -4 13 -10 16 -5 3
-10 -1 -10 -9z"/>
<path d="M9130 4990 c0 -12 -4 -19 -8 -16 -13 8 -11 -28 2 -36 5 -4 14 -4 18
-2 11 7 10 62 -2 69 -5 3 -10 -3 -10 -15z"/>
<path d="M9220 4885 c0 -8 5 -15 10 -15 6 0 10 7 10 15 0 8 -4 15 -10 15 -5 0
-10 -7 -10 -15z"/>
<path d="M5448 13989 c-13 -22 -33 -58 -45 -81 -51 -93 -108 -185 -135 -216
-15 -18 -28 -38 -28 -44 0 -6 -22 -48 -50 -94 -27 -46 -50 -87 -50 -92 0 -6
-6 -12 -13 -15 -8 -3 -39 -47 -71 -99 -31 -51 -70 -111 -86 -133 -16 -22 -41
-62 -55 -90 -15 -27 -32 -57 -40 -65 -7 -8 -22 -34 -34 -57 -11 -22 -24 -43
-29 -45 -8 -3 -50 -61 -78 -109 -6 -11 -18 -27 -27 -37 -10 -10 -17 -22 -17
-25 0 -9 -90 -150 -125 -197 -24 -31 -97 -141 -150 -224 -11 -17 -35 -51 -52
-75 -18 -24 -33 -50 -33 -56 0 -7 -7 -15 -15 -18 -8 -4 -24 -25 -36 -49 -12
-24 -40 -68 -63 -98 -23 -30 -63 -89 -90 -130 -27 -41 -66 -100 -87 -130 -22
-30 -61 -89 -89 -130 -27 -41 -57 -86 -66 -99 -10 -13 -28 -44 -40 -68 -13
-24 -28 -49 -34 -56 -26 -31 -112 -158 -146 -217 -38 -66 -111 -183 -145 -232
-10 -14 -32 -52 -49 -84 -18 -31 -50 -85 -72 -118 -22 -34 -79 -132 -125 -219
-47 -86 -89 -160 -94 -163 -5 -3 -9 -12 -9 -21 0 -8 -13 -34 -28 -57 -16 -23
-32 -54 -35 -67 -4 -14 -18 -42 -32 -63 -14 -20 -25 -42 -25 -49 0 -7 -10 -28
-23 -47 -12 -19 -42 -78 -66 -130 -24 -52 -56 -122 -71 -155 -77 -166 -90
-196 -90 -210 0 -9 -6 -26 -14 -38 -8 -12 -29 -65 -46 -117 -18 -52 -36 -99
-40 -105 -4 -5 -12 -30 -18 -55 -5 -25 -20 -74 -32 -110 -35 -103 -40 -124
-40 -161 0 -19 -7 -43 -15 -53 -8 -11 -15 -34 -15 -50 0 -17 -9 -50 -20 -74
-10 -23 -17 -49 -14 -57 3 -7 -1 -44 -9 -82 -9 -37 -21 -102 -27 -143 -6 -41
-16 -90 -21 -107 -6 -18 -9 -56 -9 -85 1 -29 -1 -109 -4 -178 -18 -363 6 -711
64 -910 12 -41 28 -93 34 -115 6 -22 17 -50 24 -62 6 -12 12 -33 12 -47 0 -13
6 -37 14 -53 26 -52 46 -104 46 -118 0 -8 18 -51 40 -97 22 -46 40 -90 40 -99
0 -9 7 -22 16 -30 8 -7 29 -40 45 -73 46 -98 59 -117 189 -302 98 -140 331
-398 404 -447 22 -15 57 -43 76 -62 41 -41 132 -115 141 -115 3 0 26 -16 50
-35 24 -19 49 -35 56 -35 6 0 18 -8 25 -18 7 -10 47 -35 88 -55 76 -38 83 -41
158 -89 24 -16 53 -28 66 -28 13 0 29 -7 36 -15 7 -8 20 -15 30 -15 10 0 23
-7 30 -15 7 -8 18 -15 25 -15 7 0 39 -13 71 -30 32 -16 75 -32 94 -36 19 -3
60 -15 90 -26 30 -11 93 -28 140 -37 47 -10 95 -23 107 -29 12 -7 41 -12 65
-12 24 0 68 -7 98 -15 30 -8 73 -15 95 -15 23 0 45 -4 51 -10 5 -5 93 -13 194
-16 159 -6 190 -4 224 10 23 9 67 16 110 16 39 1 105 5 146 11 41 5 104 12
140 16 36 3 76 11 90 18 14 7 41 16 60 19 106 21 177 41 191 53 8 7 27 13 41
13 14 0 37 9 51 20 14 11 34 20 45 20 11 0 35 8 54 17 61 31 68 33 88 33 11 0
25 9 32 20 7 11 21 20 31 20 18 0 137 59 164 82 8 6 40 25 71 42 65 35 117 70
204 139 34 26 67 47 75 47 7 0 13 4 13 9 0 5 24 26 53 48 74 57 260 236 312
302 25 31 69 88 98 126 30 39 64 79 76 89 11 11 21 23 21 27 0 4 10 19 23 32
29 33 67 95 67 112 0 8 5 17 11 20 5 4 23 35 40 68 16 34 45 87 64 117 19 30
40 66 46 80 47 99 59 129 59 140 0 8 10 33 21 57 12 25 25 59 30 76 4 18 16
57 25 87 9 30 26 99 38 152 13 53 27 103 33 110 6 7 13 55 17 106 3 51 10 101
15 111 19 35 19 622 0 702 -6 26 -14 80 -19 120 -15 135 -114 501 -147 540 -7
8 -13 24 -13 34 0 23 -176 378 -205 414 -11 14 -34 49 -50 76 -31 53 -107 160
-152 212 -16 17 -39 46 -53 64 -36 48 -146 163 -290 303 -68 66 -140 137 -160
157 -19 20 -43 39 -52 42 -10 4 -18 12 -18 19 0 7 -27 42 -61 77 -33 36 -78
87 -99 115 -21 28 -52 64 -69 80 -17 17 -31 35 -31 43 0 7 -9 17 -20 23 -11 6
-26 23 -34 38 -8 15 -47 61 -85 102 -39 41 -71 80 -71 86 0 7 -18 34 -40 60
-23 27 -57 76 -76 109 -19 33 -49 79 -67 102 -18 22 -52 74 -77 114 -25 39
-50 78 -57 84 -7 7 -40 66 -74 131 -34 66 -71 130 -81 143 -10 13 -18 31 -18
39 0 17 -70 158 -100 202 -9 14 -20 34 -23 45 -3 11 -27 70 -52 130 -49 116
-121 316 -134 375 -4 19 -12 44 -18 55 -18 34 -35 88 -43 135 -5 25 -16 72
-25 105 -30 110 -39 155 -70 365 -16 107 -34 302 -40 425 -8 172 14 482 40
548 14 34 -15 16 -37 -24z m-402 -3778 c27 -13 30 -18 30 -60 -1 -45 0 -46 31
-49 24 -2 34 2 43 17 26 49 87 6 76 -53 -7 -35 -21 -46 -61 -46 -28 0 -50 -31
-33 -48 6 -6 7 -18 2 -29 -4 -10 -8 -31 -9 -48 0 -27 -4 -30 -35 -33 -49 -5
-58 -17 -32 -45 20 -21 21 -26 8 -36 -9 -8 -35 -12 -66 -9 -44 3 -50 1 -50
-17 0 -11 -4 -25 -8 -31 -17 -25 -189 -88 -233 -84 -49 4 -59 -1 -94 -47 -24
-32 -43 -47 -55 -45 -12 2 -21 -5 -26 -20 -19 -62 -60 -83 -100 -53 -10 8 -26
15 -34 15 -8 0 -21 9 -28 20 -7 11 -18 20 -26 20 -19 0 -66 57 -66 79 0 9 5
22 11 28 14 14 18 241 4 252 -16 12 -105 32 -115 26 -5 -3 -28 -1 -50 5 -34 9
-41 15 -38 33 2 18 11 23 45 25 26 2 48 10 55 21 7 9 27 23 45 30 17 7 39 21
49 32 9 10 26 19 37 19 10 0 44 14 75 31 57 31 88 34 149 14 19 -6 25 -2 33
20 6 16 17 26 27 24 32 -3 41 1 46 20 7 28 64 37 222 36 96 0 150 -5 171 -14z
m-1251 -211 c16 -6 25 -17 25 -31 0 -13 7 -30 16 -40 20 -22 10 -39 -22 -39
-19 0 -28 8 -40 35 -8 19 -21 35 -29 35 -18 0 -28 -17 -15 -25 5 -3 14 -23 20
-44 12 -45 25 -51 121 -51 42 0 72 -5 85 -15 10 -8 31 -15 45 -15 39 0 141
-105 137 -140 -3 -22 -8 -25 -44 -25 -50 -1 -77 -20 -70 -50 4 -16 -2 -27 -24
-43 -38 -29 -64 -28 -88 2 -10 14 -38 32 -61 42 -22 9 -41 22 -41 30 0 15 49
44 75 44 21 0 19 27 -4 40 -21 11 -78 3 -100 -14 -7 -5 -23 -15 -35 -21 -17
-9 -21 -19 -19 -57 2 -34 -2 -50 -17 -63 -19 -17 -22 -17 -67 7 -47 23 -49 24
-91 8 -53 -20 -112 -89 -112 -131 0 -23 11 -37 49 -66 47 -36 50 -41 50 -85 1
-44 19 -78 41 -78 20 0 40 34 40 68 0 43 7 55 38 71 12 6 22 19 22 29 1 44 74
173 97 172 27 -2 101 -50 118 -77 25 -40 43 -48 65 -28 24 21 47 19 61 -7 7
-13 18 -28 26 -33 14 -11 28 -32 63 -102 l21 -42 -20 -20 c-13 -13 -21 -34
-21 -55 0 -28 6 -38 35 -55 38 -22 44 -41 19 -66 -12 -12 -32 -15 -78 -13 -57
3 -61 5 -64 29 -2 14 4 31 12 39 14 11 23 60 11 60 -3 0 -28 -14 -56 -32 -51
-31 -53 -31 -81 -15 -38 22 -44 21 -79 -4 -31 -22 -30 -44 2 -34 29 9 55 -2
67 -30 7 -14 20 -25 31 -25 35 0 51 -12 51 -36 0 -17 -8 -27 -26 -34 -14 -6
-32 -17 -40 -25 -9 -8 -23 -15 -32 -15 -10 0 -28 -7 -41 -16 -22 -16 -25 -16
-52 0 -28 16 -30 16 -57 -2 -15 -11 -73 -67 -129 -125 -78 -80 -103 -112 -103
-132 0 -40 -22 -73 -105 -155 -80 -80 -94 -107 -76 -146 6 -14 11 -34 11 -45
0 -10 6 -28 12 -39 16 -25 0 -55 -28 -55 -17 0 -19 9 -22 75 -2 65 -6 80 -31
110 -30 37 -77 52 -92 28 -5 -7 -9 -26 -9 -41 0 -37 -24 -45 -67 -22 -20 11
-37 15 -43 9 -14 -15 -50 -117 -50 -143 0 -14 -5 -39 -12 -57 -9 -27 -9 -37 4
-56 9 -14 14 -35 11 -50 -3 -14 2 -40 11 -57 24 -46 55 -41 94 14 34 49 46 54
74 28 20 -18 25 -101 8 -133 -5 -10 -7 -32 -4 -49 5 -26 11 -31 34 -31 41 0
51 -19 44 -84 -8 -71 17 -160 52 -183 20 -13 29 -13 55 -3 23 10 33 10 42 1
24 -24 44 -11 71 49 15 33 32 60 39 60 6 0 21 -12 33 -27 l22 -28 33 24 c25
19 35 22 48 12 25 -18 63 -32 101 -38 36 -6 60 -23 151 -103 28 -25 58 -49 67
-54 33 -18 192 -189 192 -205 0 -10 -12 -27 -26 -40 -28 -24 -29 -48 -2 -65
13 -8 22 -6 37 8 21 19 21 19 21 -12 0 -41 18 -51 40 -22 15 19 23 22 56 17
22 -4 58 -16 81 -27 23 -11 50 -20 60 -20 10 0 32 -7 48 -16 17 -9 43 -23 58
-32 16 -8 44 -31 63 -51 43 -46 45 -97 8 -167 -40 -75 -66 -151 -69 -203 -13
-202 -15 -208 -64 -259 -25 -26 -59 -74 -75 -107 -28 -56 -34 -81 -39 -161 -3
-49 -24 -67 -69 -60 -34 6 -38 4 -38 -14 0 -13 12 -28 30 -38 28 -16 57 -69
44 -81 -3 -3 -27 -6 -52 -6 -41 0 -47 -3 -50 -22 -3 -22 43 -113 57 -113 9 0
41 -99 41 -127 0 -24 23 -45 67 -62 18 -7 37 -19 43 -26 18 -21 -25 -29 -57
-11 -16 8 -52 27 -80 41 -29 15 -53 31 -53 36 0 5 -24 36 -54 68 -30 33 -64
77 -74 98 -11 21 -29 47 -41 57 -12 11 -21 24 -21 31 0 6 -16 40 -35 75 -19
36 -35 75 -35 86 0 12 -7 27 -15 34 -8 7 -15 22 -15 34 0 11 -7 30 -15 40 -8
11 -15 29 -15 39 0 11 -12 45 -26 75 -14 29 -29 75 -33 100 -14 82 -117 242
-157 242 -16 0 -128 131 -184 215 -8 12 -41 61 -72 108 -33 48 -58 96 -58 110
0 14 -4 28 -10 32 -5 3 -9 43 -9 88 0 68 4 89 25 126 19 34 24 58 24 112 0
113 -45 164 -112 128 -19 -10 -26 -6 -62 33 -23 25 -50 57 -61 72 -11 15 -31
41 -45 59 -46 59 -87 122 -94 145 -8 25 -41 30 -50 7 -10 -27 -31 -16 -82 43
-75 87 -84 104 -84 169 0 68 -5 78 -51 101 -30 15 -35 22 -39 67 -3 28 -10 57
-15 65 -5 8 -10 89 -11 180 -2 128 2 183 16 245 25 112 52 201 86 283 8 18 14
41 14 51 0 10 14 43 30 74 17 31 30 69 30 84 0 16 9 42 20 58 11 17 20 42 20
57 0 30 33 112 49 122 6 4 27 32 47 62 20 30 51 67 68 82 18 15 45 45 61 67
16 22 50 63 76 90 25 28 48 57 51 65 7 23 38 3 38 -24 0 -28 29 -49 48 -37 7
4 15 25 19 47 5 37 46 94 67 94 5 0 22 -12 37 -26 45 -43 80 -8 47 46 -10 15
-9 24 1 44 18 33 37 39 67 20 23 -15 26 -15 43 0 13 11 21 14 26 7 14 -23 43
-11 50 20 7 33 15 34 80 9z m2836 -18 c29 -24 20 -49 -23 -60 -41 -10 -45 -29
-15 -62 13 -14 27 -38 31 -53 5 -20 13 -27 31 -27 13 0 28 8 34 17 8 15 12 16
35 3 31 -16 45 -6 28 20 -22 35 -15 53 16 46 73 -18 89 -1 56 60 -37 69 33 71
107 3 24 -22 51 -46 59 -53 23 -20 242 -251 268 -283 46 -57 70 -89 98 -132
16 -24 41 -62 57 -85 15 -22 35 -54 45 -70 9 -16 26 -40 38 -55 25 -32 149
-285 158 -323 4 -16 11 -28 16 -28 6 0 10 -11 10 -24 0 -13 7 -29 15 -36 8 -7
15 -22 15 -33 0 -11 11 -52 24 -91 22 -62 43 -142 76 -291 5 -22 12 -51 15
-65 6 -25 19 -117 33 -224 5 -32 5 -85 1 -117 -4 -33 -4 -74 0 -92 12 -53 7
-235 -6 -248 -22 -22 -33 2 -33 72 0 42 -6 81 -15 98 -9 18 -15 63 -17 116 -2
63 -7 95 -20 117 -39 63 -68 9 -68 -129 0 -56 -4 -104 -9 -107 -4 -3 -10 -58
-13 -121 -3 -66 -10 -121 -17 -128 -6 -6 -11 -36 -11 -67 0 -64 -5 -73 -31
-59 -15 8 -19 21 -19 64 0 29 -4 56 -9 59 -5 3 -12 54 -16 113 -3 60 -11 137
-17 173 -5 36 -13 91 -18 123 -6 42 -15 67 -33 85 -17 18 -28 44 -32 77 -13
88 -33 104 -82 65 -14 -11 -31 -20 -37 -20 -27 0 -95 47 -152 104 -74 74 -126
105 -147 88 -24 -20 33 -159 80 -196 30 -25 38 -27 58 -16 26 14 52 8 89 -21
24 -19 26 -26 26 -100 0 -87 -7 -105 -68 -193 -46 -66 -96 -110 -149 -131 -71
-28 -80 -22 -144 100 -31 60 -60 127 -63 148 -4 21 -12 40 -19 42 -7 3 -13 27
-14 56 -1 28 -9 62 -18 75 -8 13 -15 32 -15 43 0 28 -51 121 -66 121 -24 0
-18 -32 37 -188 11 -30 19 -62 19 -71 0 -10 11 -39 24 -64 14 -25 24 -59 24
-76 -1 -16 6 -41 15 -55 10 -14 17 -33 17 -43 0 -10 9 -35 20 -56 11 -20 20
-47 20 -58 0 -22 35 -87 54 -102 20 -14 79 2 107 29 41 39 63 27 54 -29 -4
-23 -11 -46 -16 -51 -5 -6 -9 -24 -9 -42 0 -17 -7 -37 -15 -44 -8 -7 -15 -17
-15 -23 0 -17 -128 -205 -172 -255 -21 -23 -44 -54 -50 -70 -7 -15 -25 -42
-40 -60 -15 -18 -30 -45 -34 -60 -3 -15 -8 -34 -12 -42 -6 -15 -26 -128 -38
-210 -4 -25 -10 -49 -14 -55 -4 -5 -10 -23 -14 -38 -5 -22 -55 -96 -144 -212
-4 -5 -31 -37 -60 -71 -28 -33 -52 -64 -52 -68 0 -5 -25 -36 -56 -69 -31 -33
-61 -71 -67 -84 -5 -12 -13 -23 -17 -23 -4 0 -33 -20 -64 -45 -32 -25 -63 -45
-69 -45 -6 0 -18 -6 -26 -14 -21 -19 -143 -25 -149 -7 -2 6 1 17 7 24 5 7 10
31 11 52 0 22 1 65 1 95 1 30 1 61 0 68 -1 6 -1 20 -2 30 0 9 -7 74 -16 144
l-15 127 27 112 c14 61 31 123 36 136 5 13 11 62 14 109 5 94 -8 144 -44 164
-24 12 -61 79 -61 110 0 11 14 39 30 62 35 47 38 78 11 102 -23 21 -91 56
-108 56 -8 0 -31 11 -53 25 -48 31 -47 31 -107 0 -46 -23 -86 -33 -223 -56
-36 -6 -75 -16 -88 -22 -15 -7 -32 -8 -50 -1 -23 8 -28 17 -32 57 -7 54 -46
102 -91 112 -34 8 -62 50 -78 120 -7 28 -21 57 -32 65 -10 8 -23 29 -28 46 -8
27 -3 44 30 112 21 45 39 88 39 95 0 8 -9 26 -21 41 -17 21 -19 34 -14 67 7
43 65 161 120 244 91 139 114 177 120 195 4 11 11 20 16 20 5 0 14 11 19 25 7
18 22 28 55 37 47 13 62 38 21 38 -13 0 -29 7 -37 16 -8 9 -22 14 -37 11 -34
-6 -72 32 -72 72 0 16 -4 33 -10 36 -16 10 -12 47 9 78 10 15 16 38 14 51 -8
40 19 51 127 48 103 -3 125 5 97 36 -8 9 -17 26 -19 37 -3 16 -11 20 -43 20
-46 0 -57 21 -25 50 25 23 25 45 0 78 -12 15 -20 40 -20 64 0 35 -5 43 -37 64
-21 13 -44 36 -52 51 -14 25 -14 29 5 50 12 13 24 30 27 40 5 13 14 15 48 11
47 -7 88 -43 89 -80 0 -12 8 -24 19 -28 11 -3 36 -27 57 -53 48 -59 52 -62 94
-62 24 0 39 6 48 20 7 11 22 20 33 20 19 0 20 4 14 39 -11 65 31 107 65 66 7
-8 16 -15 21 -15 18 0 8 26 -18 44 -24 18 -27 18 -53 2 -45 -26 -67 -20 -95
24 -23 36 -25 47 -19 105 5 44 11 65 20 65 7 0 20 14 29 30 12 22 23 30 43 30
29 0 72 44 72 74 0 14 70 56 94 56 8 0 26 6 41 14 29 15 169 13 189 -3 6 -4
35 -11 65 -14 30 -4 61 -13 71 -22 9 -8 21 -15 26 -15 5 -1 22 -11 37 -24 27
-21 27 -24 12 -40 -9 -9 -23 -16 -31 -16 -9 0 -14 -7 -12 -17 3 -13 12 -17 33
-15 16 2 36 8 43 14 17 15 53 89 47 98 -3 4 2 13 10 20 20 17 19 23 -10 67
-19 27 -25 47 -23 77 3 34 8 42 43 62 49 28 66 29 96 6z m-2706 -87 c0 -26
-28 -31 -50 -9 -13 14 -14 19 -3 26 22 14 53 5 53 -17z m1293 -238 c27 -18 7
-77 -27 -77 -8 0 -23 -8 -34 -17 -26 -25 -84 -22 -144 7 -54 25 -65 42 -53 75
7 19 17 20 126 20 66 0 125 -4 132 -8z m-1816 -1454 c6 -22 -1 -43 -13 -43 -5
0 -9 14 -9 30 0 33 15 41 22 13z m-53 -65 c72 -90 121 -143 132 -141 8 1 28 7
46 14 30 12 34 11 58 -11 30 -28 32 -59 6 -91 -19 -23 -20 -23 -54 -7 -20 9
-46 31 -58 48 -13 16 -30 30 -39 30 -9 0 -34 18 -55 41 -37 37 -43 40 -79 34
-29 -4 -44 -1 -57 11 -23 21 -23 28 -3 59 13 19 25 25 55 25 21 0 43 -6 48
-12z m341 -222 c-12 -12 -30 2 -30 23 0 29 13 33 26 9 7 -13 9 -27 4 -32z
m-292 -30 c3 -34 1 -37 -20 -34 -27 4 -37 41 -17 64 19 23 34 11 37 -30z
m4442 -347 c0 -11 -5 -29 -10 -40 -12 -21 -32 -26 -26 -6 3 6 7 24 10 40 7 32
26 37 26 6z m-40 -264 c0 -7 -6 -18 -14 -24 -7 -6 -16 -39 -19 -72 -5 -62 -27
-108 -27 -58 0 14 -7 34 -15 45 -21 28 -18 49 10 80 14 15 25 38 25 52 0 24 1
25 20 7 11 -10 20 -24 20 -30z m-102 -107 c7 -7 12 -15 12 -18 0 -4 -27 -38
-60 -76 -48 -56 -60 -76 -60 -104 0 -25 -9 -43 -32 -67 -37 -38 -43 -40 -52
-15 -3 9 -11 24 -17 32 -9 13 -2 29 35 85 25 38 46 73 46 77 0 5 17 29 37 54
38 45 68 55 91 32z m-3 -215 c-4 -10 -10 -33 -14 -52 -9 -50 -32 -53 -24 -4 5
33 27 73 41 73 2 0 1 -8 -3 -17z m-243 -95 c-5 -5 -18 -8 -27 -6 -15 3 -14 6
7 33 23 30 23 30 26 6 2 -13 -1 -28 -6 -33z m138 -99 c0 -16 -13 -53 -30 -82
-16 -30 -30 -61 -30 -69 0 -8 -9 -27 -20 -41 -11 -14 -20 -35 -20 -47 0 -12
-13 -38 -30 -57 -16 -18 -30 -39 -30 -44 0 -6 -13 -28 -28 -48 -15 -20 -33
-48 -40 -63 -6 -16 -15 -28 -20 -28 -5 0 -25 -24 -45 -53 -20 -29 -50 -66 -66
-81 -26 -24 -33 -27 -46 -16 -13 11 -23 5 -70 -39 -29 -28 -59 -51 -66 -51 -7
0 -36 -22 -65 -50 -54 -51 -80 -61 -90 -36 -6 15 22 76 34 76 5 0 18 19 30 43
12 23 33 60 46 82 14 22 32 54 41 72 9 17 25 39 36 49 10 9 19 22 19 28 0 6
11 22 25 36 42 43 92 104 104 128 6 12 17 22 23 22 16 0 68 51 68 65 0 7 10
20 22 31 11 10 36 52 55 92 18 39 35 72 37 72 3 0 11 3 19 6 12 4 14 0 10 -18
-3 -13 -12 -32 -20 -43 -15 -22 -18 -65 -3 -65 19 0 61 56 72 96 7 26 21 46
37 56 33 19 41 14 41 -23z m-640 -36 c0 -8 -18 -52 -39 -96 -22 -45 -42 -93
-45 -107 -6 -30 -64 -108 -86 -115 -8 -3 -24 -20 -35 -37 -29 -46 -51 -57 -72
-36 -16 16 -16 19 0 36 9 10 17 32 17 49 0 17 7 36 15 43 8 7 15 18 15 25 0 7
9 24 21 39 11 14 17 30 14 36 -6 10 7 24 81 92 37 35 60 61 74 88 9 17 14 19
26 9 8 -6 14 -18 14 -26z m88 -259 c-64 -58 -74 -36 -12 29 20 22 29 26 38 17
8 -8 2 -20 -26 -46z m-458 -488 c0 -7 -7 -19 -15 -26 -8 -7 -15 -27 -15 -45 0
-18 -7 -56 -17 -84 -12 -38 -24 -55 -46 -66 -41 -21 -53 -6 -31 36 10 19 21
63 24 99 4 57 8 65 27 68 12 2 27 10 33 18 16 18 40 18 40 0z"/>
<path d="M3666 9853 c-11 -11 -6 -40 9 -53 8 -7 14 -25 12 -44 -2 -25 2 -32
20 -34 25 -4 42 33 24 51 -6 6 -11 20 -11 32 -1 21 -43 59 -54 48z"/>
<path d="M3556 9812 c-9 -11 -14 -26 -10 -36 4 -11 1 -16 -14 -16 -27 0 -72
-37 -72 -60 0 -31 26 -29 64 6 20 19 43 34 49 34 20 0 57 30 57 46 0 8 -5 14
-12 14 -6 0 -19 7 -28 15 -15 14 -19 13 -34 -3z"/>
<path d="M3352 9128 c-18 -18 -15 -26 18 -43 34 -17 50 -13 50 14 0 21 -19 41
-40 41 -9 0 -21 -5 -28 -12z"/>
<path d="M3424 9025 c-4 -9 0 -23 8 -31 20 -20 50 -7 46 20 -4 26 -45 35 -54
11z"/>
<path d="M3505 8939 c-12 -19 5 -23 22 -6 16 16 16 17 1 17 -9 0 -20 -5 -23
-11z"/>
<path d="M3302 8897 c-26 -27 -29 -47 -7 -47 15 0 39 44 33 62 -2 5 -13 -1
-26 -15z"/>
<path d="M6094 9595 c-43 -40 -47 -48 -36 -65 14 -24 16 -110 2 -110 -5 0 -10
-10 -10 -22 0 -53 -11 -68 -48 -68 l-35 0 26 -20 c30 -24 57 -26 57 -5 0 13 9
15 51 9 l50 -7 -3 48 c-3 45 -1 49 22 55 15 3 26 14 28 26 2 17 -7 25 -43 38
-43 17 -45 19 -45 57 0 25 8 51 22 69 35 48 14 45 -38 -5z"/>
<path d="M6256 9481 c-3 -5 1 -14 10 -21 11 -10 18 -10 27 -1 9 9 9 14 -3 21
-19 12 -27 12 -34 1z"/>
<path d="M5595 9161 c-8 -15 3 -31 21 -31 9 0 14 7 12 17 -4 20 -24 28 -33 14z"/>
<path d="M6060 8980 c0 -5 5 -10 11 -10 5 0 7 5 4 10 -3 6 -8 10 -11 10 -2 0
-4 -4 -4 -10z"/>
<path d="M6090 8940 c0 -11 2 -20 4 -20 2 0 11 -3 20 -6 24 -9 20 23 -4 36
-17 9 -20 8 -20 -10z"/>
<path d="M5900 8909 c-14 -6 -42 -8 -63 -6 -22 3 -42 0 -47 -6 -52 -64 -62
-79 -56 -84 3 -3 -14 -28 -39 -54 -25 -27 -45 -57 -45 -69 0 -22 19 -27 37 -9
7 7 68 13 161 15 147 4 149 4 171 -20 17 -18 22 -32 17 -50 -10 -39 24 -87 84
-118 14 -7 41 -25 61 -41 20 -15 51 -30 71 -33 36 -6 36 -7 97 75 14 19 21 22
37 13 10 -6 45 -14 77 -17 63 -7 88 -24 80 -55 -6 -24 0 -25 33 -3 14 9 42 19
62 22 53 9 86 60 78 120 -8 56 -20 71 -61 71 -18 0 -52 7 -75 15 -23 8 -46 12
-51 9 -14 -8 -69 35 -69 55 0 26 -29 81 -43 81 -33 -1 -42 -19 -40 -85 2 -51
0 -67 -12 -72 -17 -6 -55 23 -55 42 0 7 -15 32 -33 56 -18 24 -36 52 -40 62
-13 35 -34 18 -41 -33 -7 -56 -41 -129 -63 -137 -15 -6 -73 43 -73 63 0 23 26
35 54 24 25 -9 27 -8 24 12 -2 12 -19 32 -38 45 -44 27 -59 41 -90 81 -28 36
-70 48 -110 31z m70 -92 c0 -12 -5 -29 -10 -37 -8 -13 -12 -12 -31 6 l-21 22
21 21 c25 25 41 20 41 -12z"/>
<path d="M7736 12168 c-21 -67 -108 -291 -131 -335 -9 -18 -20 -33 -23 -33 -4
0 -7 -14 -8 -30 -1 -17 -20 -68 -43 -114 -22 -47 -41 -90 -41 -96 0 -6 -13
-43 -30 -82 -35 -83 -36 -88 -11 -88 11 0 23 -5 26 -11 4 -6 19 -7 36 -4 35 8
127 -12 151 -33 14 -12 21 -12 32 -3 10 8 46 12 103 10 100 -2 233 10 233 21
0 5 -16 49 -35 99 -19 49 -35 106 -35 125 0 19 -5 36 -11 38 -20 7 -83 200
-76 229 3 11 1 19 -4 19 -13 0 -29 35 -45 98 -8 31 -19 61 -23 66 -5 6 -16 37
-25 68 -16 58 -33 80 -40 56z"/>
<path d="M7530 11290 c-8 -5 -35 -10 -60 -10 -78 0 -85 -6 -115 -81 -16 -38
-32 -69 -37 -69 -4 0 -8 -10 -8 -23 0 -33 -58 -178 -81 -203 -10 -11 -19 -24
-19 -29 0 -11 61 -85 116 -141 24 -24 44 -48 44 -53 0 -5 9 -11 20 -14 11 -3
24 -17 30 -31 5 -14 14 -26 20 -26 14 0 110 -96 110 -110 0 -6 8 -13 18 -17
25 -9 268 -255 276 -280 4 -11 31 -44 61 -72 30 -29 66 -71 80 -95 14 -24 34
-51 45 -61 11 -10 20 -23 20 -29 0 -5 11 -21 24 -35 13 -15 41 -57 62 -96 21
-38 52 -88 70 -110 17 -22 50 -76 72 -120 47 -91 67 -122 58 -89 -5 15 0 24
19 32 25 12 25 12 9 49 -25 59 -27 72 -13 89 11 14 11 18 -4 28 -14 11 -16 39
-16 242 0 160 4 231 12 236 8 5 6 12 -5 25 -13 14 -17 43 -18 133 -2 63 1 127
5 143 4 15 3 33 -3 40 -6 6 -15 57 -22 112 -7 55 -13 102 -15 104 -2 2 -19 -2
-36 -8 -18 -6 -36 -8 -39 -4 -14 17 -60 231 -63 290 -1 42 -6 63 -14 63 -19 0
-29 27 -48 122 -18 90 -38 125 -56 97 -5 -8 -9 -24 -9 -36 0 -13 -2 -23 -5
-23 -2 0 -26 13 -54 29 l-50 30 -170 -3 c-94 -1 -171 1 -171 6 0 11 -22 10
-40 -2z"/>
<path d="M8430 10780 c-9 -5 -16 -30 -18 -62 -1 -29 -7 -54 -12 -56 -14 -5
-12 -30 3 -34 17 -6 21 -389 4 -401 -9 -5 -7 -11 4 -20 15 -11 15 -15 -7 -42
-30 -38 -30 -44 2 -107 23 -46 25 -57 17 -95 -6 -23 -6 -46 -2 -50 6 -6 13
-296 9 -412 0 -7 -6 -11 -15 -7 -20 7 -20 -23 0 -38 11 -8 16 -37 19 -111 3
-55 5 -103 5 -107 1 -9 114 3 125 13 6 5 23 9 40 9 26 0 60 16 226 108 88 49
225 181 266 257 6 11 27 48 47 83 49 84 79 194 92 335 4 37 13 81 22 97 13 27
13 33 0 53 -8 13 -18 54 -22 93 -8 79 -49 193 -76 212 -11 7 -19 25 -19 39 0
19 -4 24 -16 19 -11 -4 -28 5 -49 27 -82 84 -120 107 -232 139 -59 17 -114 35
-120 40 -7 6 -68 11 -135 12 -68 1 -128 4 -133 8 -6 4 -17 3 -25 -2z"/>
<path d="M3683 4933 c9 -9 19 -14 23 -11 10 10 -6 28 -24 28 -15 0 -15 -1 1
-17z"/>
<path d="M3540 3260 l0 -59 -62 5 c-85 7 -143 -21 -175 -86 -40 -79 -20 -195
41 -235 39 -26 105 -30 151 -11 25 11 41 13 43 6 2 -5 32 -10 68 -10 l64 0 0
225 0 225 -65 0 -65 0 0 -60z m-2 -210 c3 -82 -7 -100 -58 -100 -39 0 -65 34
-65 85 0 59 35 97 85 93 l35 -3 3 -75z"/>
<path d="M5657 3310 c-41 -13 -56 -28 -67 -71 -8 -29 -16 -39 -30 -39 -17 0
-20 -7 -20 -40 0 -33 3 -40 20 -40 19 0 20 -7 20 -125 l0 -125 65 0 65 0 0
125 0 125 45 0 45 0 0 40 0 40 -45 0 c-47 0 -56 9 -30 30 10 8 29 10 55 6 l40
-6 0 39 c0 26 -5 41 -16 45 -22 8 -114 6 -147 -4z"/>
<path d="M9560 3275 l0 -45 70 0 70 0 0 45 0 45 -70 0 -70 0 0 -45z"/>
<path d="M10950 3095 l0 -226 83 0 c45 -1 108 -1 140 -2 62 -1 92 15 131 66
45 61 27 214 -30 252 -38 25 -112 30 -158 11 -21 -9 -40 -16 -42 -16 -2 0 -4
32 -4 70 l0 70 -60 0 -60 0 0 -225z m224 9 c37 -36 32 -123 -9 -150 -13 -8
-38 -14 -57 -12 l-33 3 -3 75 c-2 62 0 77 14 87 24 18 69 16 88 -3z"/>
<path d="M11490 3095 l0 -225 60 0 60 0 0 225 0 225 -60 0 -60 0 0 -225z"/>
<path d="M325 3288 c2 -7 27 -89 55 -183 28 -93 56 -185 61 -202 l11 -33 72 0
73 0 37 120 c20 66 39 120 41 120 3 0 44 -127 71 -222 5 -15 17 -18 79 -18
l74 0 35 113 c19 61 47 153 62 202 15 50 29 96 31 103 4 9 -13 12 -65 12 l-71
0 -9 -32 c-5 -18 -19 -75 -33 -125 -13 -51 -26 -93 -29 -93 -3 0 -21 56 -40
125 l-35 125 -67 0 -67 0 -35 -114 c-20 -63 -36 -119 -36 -125 0 -6 -4 -11 -8
-11 -4 0 -21 55 -38 123 l-30 122 -72 3 c-55 2 -71 0 -67 -10z"/>
<path d="M1700 3245 c0 -38 -3 -45 -20 -45 -17 0 -20 -7 -20 -40 0 -33 3 -40
20 -40 18 0 20 -7 20 -84 0 -93 11 -136 40 -154 29 -18 100 -26 154 -18 46 7
46 7 46 47 l0 39 -40 -6 c-60 -10 -70 4 -70 97 l0 79 55 0 55 0 0 40 0 40 -55
0 -55 0 0 45 0 45 -65 0 -65 0 0 -45z"/>
<path d="M4370 3245 c0 -38 -3 -45 -20 -45 -17 0 -20 -7 -20 -40 0 -33 3 -40
20 -40 18 0 20 -7 20 -84 0 -93 11 -136 40 -154 29 -18 100 -26 154 -18 46 7
46 7 46 47 l0 39 -40 -6 c-60 -10 -70 4 -70 97 l0 79 55 0 55 0 0 40 0 40 -55
0 -55 0 0 45 0 45 -65 0 -65 0 0 -45z"/>
<path d="M8670 3245 c0 -38 -3 -45 -20 -45 -17 0 -20 -7 -20 -40 0 -33 3 -40
20 -40 18 0 20 -7 20 -84 0 -93 11 -136 40 -154 29 -18 100 -26 154 -18 46 7
46 7 46 47 l0 39 -40 -6 c-60 -10 -70 4 -70 97 l0 79 55 0 55 0 0 40 0 40 -55
0 -55 0 0 45 0 45 -65 0 -65 0 0 -45z"/>
<path d="M1225 3202 c-39 -7 -40 -8 -43 -51 -3 -43 -3 -44 25 -37 66 17 148
18 168 3 11 -9 17 -18 14 -21 -3 -3 -40 -10 -82 -16 -120 -15 -157 -42 -157
-112 0 -85 101 -133 198 -93 24 10 38 12 40 5 2 -5 32 -10 68 -10 l64 0 0 125
c0 144 -10 176 -62 195 -39 14 -177 21 -233 12z m165 -212 c0 -46 -71 -70
-101 -34 -24 29 14 60 79 63 18 1 22 -4 22 -29z"/>
<path d="M2181 3201 c-106 -27 -159 -140 -113 -243 15 -35 29 -50 65 -67 59
-28 173 -37 242 -19 l50 13 3 48 c4 54 -1 56 -58 27 -78 -40 -190 -13 -190 46
0 2 59 4 131 4 l131 0 -4 55 c-5 62 -29 102 -73 124 -34 17 -138 23 -184 12z
m111 -88 c30 -27 21 -33 -47 -33 -68 0 -79 9 -43 34 29 21 67 20 90 -1z"/>
<path d="M3895 3202 c-39 -7 -40 -8 -43 -51 -3 -43 -3 -44 25 -37 66 17 148
18 168 3 11 -9 17 -18 14 -21 -3 -3 -40 -10 -82 -16 -120 -15 -157 -42 -157
-112 0 -85 101 -133 198 -93 24 10 38 12 40 5 2 -5 32 -10 68 -10 l64 0 0 125
c0 144 -10 176 -62 195 -39 14 -177 21 -233 12z m165 -212 c0 -46 -71 -70
-101 -34 -24 29 14 60 79 63 18 1 22 -4 22 -29z"/>
<path d="M4795 3202 c-39 -7 -40 -8 -43 -51 -3 -43 -3 -44 25 -37 66 17 148
18 168 3 11 -9 17 -18 14 -21 -3 -3 -40 -10 -82 -16 -120 -15 -157 -42 -157
-112 0 -85 101 -133 198 -93 24 10 38 12 40 5 2 -5 32 -10 68 -10 l64 0 0 125
c0 144 -10 176 -62 195 -39 14 -177 21 -233 12z m165 -212 c0 -46 -71 -70
-101 -34 -24 29 14 60 79 63 18 1 22 -4 22 -29z"/>
<path d="M6030 3199 c-85 -26 -125 -86 -118 -178 8 -109 69 -156 203 -156 92
0 135 19 172 75 18 25 23 47 23 95 0 71 -24 116 -77 147 -38 23 -153 32 -203
17z m129 -95 c45 -58 14 -164 -48 -164 -38 0 -62 30 -68 82 -9 91 67 144 116
82z"/>
<path d="M7257 3199 c-81 -19 -119 -73 -96 -137 14 -40 46 -57 132 -72 37 -7
70 -17 73 -22 18 -29 -75 -37 -141 -12 -79 30 -75 31 -75 -20 0 -40 3 -48 25
-56 46 -17 149 -23 207 -11 71 15 105 41 114 87 13 71 -22 103 -135 122 -72
13 -76 15 -68 37 8 20 85 20 134 0 51 -21 53 -20 53 29 l0 44 -50 11 c-59 13
-119 13 -173 0z"/>
<path d="M8277 3199 c-81 -19 -119 -73 -96 -137 14 -40 46 -57 132 -72 37 -7
70 -17 73 -22 18 -29 -75 -37 -141 -12 -79 30 -75 31 -75 -20 0 -40 3 -48 25
-56 46 -17 149 -23 207 -11 71 15 105 41 114 87 13 71 -22 103 -135 122 -72
13 -76 15 -68 37 8 20 85 20 134 0 51 -21 53 -20 53 29 l0 44 -50 11 c-59 13
-119 13 -173 0z"/>
<path d="M9095 3202 c-39 -7 -40 -8 -43 -51 -3 -43 -3 -44 25 -37 66 17 148
18 168 3 11 -9 17 -18 14 -21 -3 -3 -40 -10 -82 -16 -120 -15 -157 -42 -157
-112 0 -85 101 -133 198 -93 24 10 38 12 40 5 2 -5 32 -10 68 -10 l64 0 0 125
c0 144 -10 176 -62 195 -39 14 -177 21 -233 12z m165 -212 c0 -46 -71 -70
-101 -34 -24 29 14 60 79 63 18 1 22 -4 22 -29z"/>
<path d="M10045 3195 c-24 -9 -41 -11 -43 -5 -2 6 -30 10 -63 10 l-59 0 0
-165 0 -165 60 0 60 0 0 115 c0 125 5 135 64 135 47 0 56 -21 56 -141 l0 -109
65 0 65 0 0 120 c0 145 -12 184 -64 205 -44 19 -89 18 -141 0z"/>
<path d="M10475 3202 c-39 -7 -40 -8 -43 -51 -3 -43 -3 -44 25 -37 66 17 148
18 168 3 11 -9 17 -18 14 -21 -3 -3 -40 -10 -82 -16 -120 -15 -157 -42 -157
-112 0 -85 101 -133 198 -93 24 10 38 12 40 5 2 -5 32 -10 68 -10 l64 0 0 125
c0 144 -10 176 -62 195 -39 14 -177 21 -233 12z m165 -212 c0 -46 -71 -70
-101 -34 -24 29 14 60 79 63 18 1 22 -4 22 -29z"/>
<path d="M11891 3201 c-106 -27 -159 -140 -113 -243 15 -35 29 -50 65 -67 59
-28 173 -37 242 -19 l50 13 3 48 c4 54 -1 56 -58 27 -78 -40 -190 -13 -190 46
0 2 59 4 131 4 l131 0 -4 55 c-5 62 -29 102 -73 124 -34 17 -138 23 -184 12z
m111 -88 c30 -27 21 -33 -47 -33 -68 0 -79 9 -43 34 29 21 67 20 90 -1z"/>
<path d="M2600 3035 l0 -165 60 0 60 0 0 114 c0 130 -3 126 98 126 l52 0 0 45
c0 44 -1 45 -32 45 -18 -1 -51 -7 -73 -15 -49 -18 -45 -18 -45 0 0 12 -13 15
-60 15 l-60 0 0 -165z"/>
<path d="M6470 3035 l0 -165 60 0 60 0 0 114 c0 130 -3 126 98 126 l52 0 0 45
c0 44 -1 45 -32 45 -18 -1 -51 -7 -73 -15 -49 -18 -45 -18 -45 0 0 12 -13 15
-60 15 l-60 0 0 -165z"/>
<path d="M7641 3083 c0 -65 5 -134 12 -153 21 -62 104 -86 192 -55 24 9 41 11
43 5 2 -6 30 -10 63 -10 l59 0 0 165 0 165 -60 0 -60 0 0 -115 c0 -125 -5
-135 -64 -135 -47 0 -56 21 -56 141 l0 109 -65 0 -65 0 1 -117z"/>
<path d="M9570 3035 l0 -165 60 0 60 0 0 165 0 165 -60 0 -60 0 0 -165z"/>
<path d="M8930 2545 c0 -38 -3 -45 -20 -45 -17 0 -20 -7 -20 -40 0 -33 3 -40
20 -40 18 0 20 -7 20 -84 0 -93 11 -136 40 -154 29 -18 100 -26 154 -18 46 7
46 7 46 47 l0 39 -40 -6 c-60 -10 -70 4 -70 97 l0 79 55 0 55 0 0 40 0 40 -55
0 -55 0 0 45 0 45 -65 0 -65 0 0 -45z"/>
<path d="M3830 2495 c-22 -10 -36 -12 -38 -5 -2 5 -30 10 -63 10 l-59 0 0
-165 0 -165 60 0 60 0 0 115 c0 125 5 135 64 135 37 0 46 -27 46 -144 l0 -106
65 0 65 0 0 120 0 119 35 7 c59 11 65 -2 65 -132 l0 -114 65 0 65 0 0 130 c0
145 -8 172 -55 195 -46 21 -94 19 -147 -8 -45 -23 -45 -23 -71 -3 -34 25 -112
31 -157 11z"/>
<path d="M4485 2502 c-39 -7 -40 -8 -43 -51 -3 -43 -3 -44 25 -37 66 17 148
18 168 3 11 -9 17 -18 14 -21 -3 -3 -40 -10 -82 -16 -120 -15 -157 -42 -157
-112 0 -85 101 -133 198 -93 24 10 38 12 40 5 2 -5 32 -10 68 -10 l64 0 0 125
c0 144 -10 176 -62 195 -39 14 -177 21 -233 12z m165 -212 c0 -46 -71 -70
-101 -34 -24 29 14 60 79 63 18 1 22 -4 22 -29z"/>
<path d="M5125 2495 c-24 -9 -41 -11 -43 -5 -2 6 -30 10 -63 10 l-59 0 0 -165
0 -165 60 0 60 0 0 115 c0 125 5 135 64 135 47 0 56 -21 56 -141 l0 -109 65 0
65 0 0 120 c0 145 -12 184 -64 205 -44 19 -89 18 -141 0z"/>
<path d="M5555 2502 c-39 -7 -40 -8 -43 -51 -3 -43 -3 -44 25 -37 66 17 148
18 168 3 11 -9 17 -18 14 -21 -3 -3 -40 -10 -82 -16 -120 -15 -157 -42 -157
-112 0 -85 101 -133 198 -93 24 10 38 12 40 5 2 -5 32 -10 68 -10 l64 0 0 125
c0 144 -10 176 -62 195 -39 14 -177 21 -233 12z m165 -212 c0 -46 -71 -70
-101 -34 -24 29 14 60 79 63 18 1 22 -4 22 -29z"/>
<path d="M6106 2500 c-85 -27 -125 -125 -96 -232 21 -73 110 -113 202 -90 23
6 44 9 46 7 2 -2 -8 -16 -23 -31 -24 -24 -31 -26 -83 -21 -31 3 -69 9 -84 13
-27 6 -28 5 -28 -39 l0 -45 75 -7 c132 -13 216 10 250 68 17 28 20 55 23 205
l4 173 -74 -1 c-40 0 -98 1 -128 4 -30 3 -68 1 -84 -4z m152 -145 c2 -57 0
-72 -14 -82 -30 -22 -70 -16 -93 13 -25 31 -27 64 -6 104 17 34 29 40 75 37
l35 -2 3 -70z"/>
<path d="M6671 2501 c-106 -27 -159 -140 -113 -243 15 -35 29 -50 65 -67 59
-28 173 -37 242 -19 l50 13 3 48 c4 54 -1 56 -58 27 -78 -40 -190 -13 -190 46
0 2 59 4 131 4 l131 0 -4 55 c-5 62 -29 102 -73 124 -34 17 -138 23 -184 12z
m111 -88 c30 -27 21 -33 -47 -33 -68 0 -79 9 -43 34 29 21 67 20 90 -1z"/>
<path d="M7250 2495 c-22 -10 -36 -12 -38 -5 -2 5 -30 10 -63 10 l-59 0 0
-165 0 -165 60 0 60 0 0 115 c0 125 5 135 64 135 37 0 46 -27 46 -144 l0 -106
65 0 65 0 0 120 0 119 35 7 c59 11 65 -2 65 -132 l0 -114 65 0 65 0 0 130 c0
145 -8 172 -55 195 -46 21 -94 19 -147 -8 -45 -23 -45 -23 -71 -3 -34 25 -112
31 -157 11z"/>
<path d="M7961 2501 c-106 -27 -159 -140 -113 -243 15 -35 29 -50 65 -67 59
-28 173 -37 242 -19 l50 13 3 48 c4 54 -1 56 -58 27 -78 -40 -190 -13 -190 46
0 2 59 4 131 4 l131 0 -4 55 c-5 62 -29 102 -73 124 -34 17 -138 23 -184 12z
m111 -88 c30 -27 21 -33 -47 -33 -68 0 -79 9 -43 34 29 21 67 20 90 -1z"/>
<path d="M8545 2495 c-24 -9 -41 -11 -43 -5 -2 6 -30 10 -63 10 l-59 0 0 -165
0 -165 60 0 60 0 0 115 c0 125 5 135 64 135 47 0 56 -21 56 -141 l0 -109 65 0
65 0 0 120 c0 145 -12 184 -64 205 -44 19 -89 18 -141 0z"/>
</g>
</svg>
